STARTFONT 2.1
COMMENT
COMMENT Converted from OpenType font "fonts\ttf\Oswald-Medium.ttf" by "third_party\otf2bdf3-win32\otf2bdf.exe 3.0".
COMMENT
FONT -FreeType-Oswald-Medium-R-Normal--19-140-100-100-P-83-ISO10646-1
SIZE 14 100 100
FONTBOUNDINGBOX 39 26 -2 -6
STARTPROPERTIES 19
FOUNDRY "FreeType"
FAMILY_NAME "Oswald"
WEIGHT_NAME "Medium"
SLANT "R"
SETWIDTH_NAME "Normal"
ADD_STYLE_NAME ""
PIXEL_SIZE 19
POINT_SIZE 140
RESOLUTION_X 100
RESOLUTION_Y 100
SPACING "P"
AVERAGE_WIDTH 83
CHARSET_REGISTRY "ISO10646"
CHARSET_ENCODING "1"
FONT_ASCENT 20
FONT_DESCENT 5
COPYRIGHT "Copyright (c) 2010-13 by Vernon Adams"
_OTF_FONTFILE "fonts\ttf\Oswald-Medium.ttf"
_OTF_PSNAME "Oswald-Medium"
ENDPROPERTIES
CHARS 554
STARTCHAR 0020
ENCODING 32
SWIDTH 257 0
DWIDTH 5 0
BBX 0 0 0 0
BITMAP
ENDCHAR
STARTCHAR 0021
ENCODING 33
SWIDTH 205 0
DWIDTH 4 0
BBX 2 15 1 0
BITMAP
C0
C0
C0
C0
C0
C0
C0
C0
C0
40
40
40
00
C0
C0
ENDCHAR
STARTCHAR 0022
ENCODING 34
SWIDTH 360 0
DWIDTH 7 0
BBX 6 5 1 10
BITMAP
DC
D8
D8
D8
D8
ENDCHAR
STARTCHAR 0023
ENCODING 35
SWIDTH 514 0
DWIDTH 10 0
BBX 8 15 1 0
BITMAP
33
37
36
76
FF
FF
66
66
FF
FF
EC
CC
CC
CC
CC
ENDCHAR
STARTCHAR 0024
ENCODING 36
SWIDTH 462 0
DWIDTH 9 0
BBX 8 19 1 -2
BITMAP
10
10
7C
FE
C6
C6
E0
F0
78
3C
1E
0E
47
C7
E7
FE
7C
10
10
ENDCHAR
STARTCHAR 0025
ENCODING 37
SWIDTH 925 0
DWIDTH 18 0
BBX 17 15 1 0
BITMAP
786000
FC6000
CC6000
CCC000
CCC000
CCC000
CC8000
FD9E00
79BF00
01B380
033380
033380
033380
023F00
061E00
ENDCHAR
STARTCHAR 0026
ENCODING 38
SWIDTH 565 0
DWIDTH 11 0
BBX 9 15 1 0
BITMAP
3C00
7E00
6600
6600
6600
6C00
3800
3000
7980
FD80
CD80
C700
C700
FF80
7980
ENDCHAR
STARTCHAR 0027
ENCODING 39
SWIDTH 308 0
DWIDTH 6 0
BBX 2 5 1 10
BITMAP
C0
C0
C0
C0
C0
ENDCHAR
STARTCHAR 0028
ENCODING 40
SWIDTH 308 0
DWIDTH 6 0
BBX 4 18 1 -3
BITMAP
10
70
60
60
E0
E0
E0
E0
E0
E0
E0
E0
E0
E0
60
60
70
10
ENDCHAR
STARTCHAR 0029
ENCODING 41
SWIDTH 308 0
DWIDTH 6 0
BBX 4 18 1 -3
BITMAP
C0
E0
60
60
70
70
70
70
70
70
70
70
70
70
60
60
E0
C0
ENDCHAR
STARTCHAR 002A
ENCODING 42
SWIDTH 411 0
DWIDTH 8 0
BBX 6 7 1 8
BITMAP
30
B4
FC
78
78
6C
28
ENDCHAR
STARTCHAR 002B
ENCODING 43
SWIDTH 411 0
DWIDTH 8 0
BBX 8 8 0 4
BITMAP
18
18
18
FF
FF
18
18
18
ENDCHAR
STARTCHAR 002C
ENCODING 44
SWIDTH 205 0
DWIDTH 4 0
BBX 2 5 1 -2
BITMAP
C0
C0
40
C0
80
ENDCHAR
STARTCHAR 002D
ENCODING 45
SWIDTH 360 0
DWIDTH 7 0
BBX 5 2 1 5
BITMAP
F8
F8
ENDCHAR
STARTCHAR 002E
ENCODING 46
SWIDTH 205 0
DWIDTH 4 0
BBX 2 3 1 0
BITMAP
C0
C0
C0
ENDCHAR
STARTCHAR 002F
ENCODING 47
SWIDTH 411 0
DWIDTH 8 0
BBX 6 15 1 0
BITMAP
0C
08
18
18
18
30
30
30
20
60
60
60
C0
C0
C0
ENDCHAR
STARTCHAR 0030
ENCODING 48
SWIDTH 514 0
DWIDTH 10 0
BBX 8 15 1 0
BITMAP
3C
7E
E7
E7
E7
E7
E7
E7
E7
E7
E7
E7
E7
7E
3C
ENDCHAR
STARTCHAR 0031
ENCODING 49
SWIDTH 514 0
DWIDTH 10 0
BBX 6 15 1 0
BITMAP
1C
7C
7C
9C
1C
1C
1C
1C
1C
1C
1C
1C
1C
1C
1C
ENDCHAR
STARTCHAR 0032
ENCODING 50
SWIDTH 514 0
DWIDTH 10 0
BBX 8 15 1 0
BITMAP
3C
7E
E7
E7
E7
07
0E
0E
1C
38
38
70
E0
FF
FF
ENDCHAR
STARTCHAR 0033
ENCODING 51
SWIDTH 462 0
DWIDTH 9 0
BBX 8 15 1 0
BITMAP
3C
FE
E7
C7
07
06
1C
1E
06
07
C7
C7
E7
FE
3C
ENDCHAR
STARTCHAR 0034
ENCODING 52
SWIDTH 514 0
DWIDTH 10 0
BBX 8 15 1 0
BITMAP
1E
1E
3E
3E
3E
6E
6E
EE
CE
FF
FF
0E
0E
0E
0E
ENDCHAR
STARTCHAR 0035
ENCODING 53
SWIDTH 462 0
DWIDTH 9 0
BBX 8 15 1 0
BITMAP
FE
FE
E0
C0
C0
DC
FE
E7
07
07
07
E7
E6
7E
3C
ENDCHAR
STARTCHAR 0036
ENCODING 54
SWIDTH 514 0
DWIDTH 10 0
BBX 8 15 1 0
BITMAP
3C
7E
E7
E7
E0
FC
FE
E7
E7
E7
E7
E7
E7
7E
3C
ENDCHAR
STARTCHAR 0037
ENCODING 55
SWIDTH 411 0
DWIDTH 8 0
BBX 6 15 1 0
BITMAP
FC
FC
0C
1C
1C
18
18
18
38
38
30
30
70
70
60
ENDCHAR
STARTCHAR 0038
ENCODING 56
SWIDTH 514 0
DWIDTH 10 0
BBX 8 15 1 0
BITMAP
3C
7E
E6
E7
E6
E6
7C
7E
E6
C7
C7
C7
E7
FE
3C
ENDCHAR
STARTCHAR 0039
ENCODING 57
SWIDTH 514 0
DWIDTH 10 0
BBX 8 15 1 0
BITMAP
3C
7E
E6
C7
C7
C7
E7
FF
3F
07
07
C7
E6
7E
3C
ENDCHAR
STARTCHAR 003A
ENCODING 58
SWIDTH 205 0
DWIDTH 4 0
BBX 3 8 1 3
BITMAP
E0
E0
00
00
00
00
E0
E0
ENDCHAR
STARTCHAR 003B
ENCODING 59
SWIDTH 257 0
DWIDTH 5 0
BBX 3 12 1 -2
BITMAP
E0
E0
E0
00
00
00
00
00
E0
E0
60
C0
ENDCHAR
STARTCHAR 003C
ENCODING 60
SWIDTH 360 0
DWIDTH 7 0
BBX 5 10 1 2
BITMAP
08
18
78
E0
C0
C0
F0
38
18
08
ENDCHAR
STARTCHAR 003D
ENCODING 61
SWIDTH 411 0
DWIDTH 8 0
BBX 6 5 1 5
BITMAP
FC
FC
00
FC
FC
ENDCHAR
STARTCHAR 003E
ENCODING 62
SWIDTH 360 0
DWIDTH 7 0
BBX 6 10 1 2
BITMAP
80
E0
F0
38
1C
1C
78
F0
C0
80
ENDCHAR
STARTCHAR 003F
ENCODING 63
SWIDTH 462 0
DWIDTH 9 0
BBX 8 15 1 0
BITMAP
7C
FE
C6
C7
06
0E
0E
1C
38
30
30
00
30
30
30
ENDCHAR
STARTCHAR 0040
ENCODING 64
SWIDTH 925 0
DWIDTH 18 0
BBX 16 18 1 -3
BITMAP
03F0
0FFC
1C0E
3006
71F3
63F3
6733
C673
CE63
CE63
CE63
CEE6
E7FC
6338
7000
3800
1FF0
07F0
ENDCHAR
STARTCHAR 0041
ENCODING 65
SWIDTH 514 0
DWIDTH 10 0
BBX 10 15 0 0
BITMAP
1E00
1E00
1E00
1E00
1E00
3F00
3700
3300
3300
3300
7F80
7F80
6380
6180
E1C0
ENDCHAR
STARTCHAR 0042
ENCODING 66
SWIDTH 565 0
DWIDTH 11 0
BBX 9 15 1 0
BITMAP
FE00
FF00
E300
E300
E300
E300
FE00
FF00
E380
E380
E380
E380
E380
FF00
FE00
ENDCHAR
STARTCHAR 0043
ENCODING 67
SWIDTH 514 0
DWIDTH 10 0
BBX 8 15 1 0
BITMAP
3E
7F
E3
E3
E3
E0
E0
E0
E0
E3
E3
E3
E3
7F
3E
ENDCHAR
STARTCHAR 0044
ENCODING 68
SWIDTH 565 0
DWIDTH 11 0
BBX 9 15 1 0
BITMAP
FE00
FF00
E300
E380
E380
E380
E380
E380
E380
E380
E380
E380
E700
FF00
FE00
ENDCHAR
STARTCHAR 0045
ENCODING 69
SWIDTH 411 0
DWIDTH 8 0
BBX 7 15 1 0
BITMAP
FE
FE
E0
E0
E0
E0
FC
FC
E0
E0
E0
E0
E0
FE
FE
ENDCHAR
STARTCHAR 0046
ENCODING 70
SWIDTH 411 0
DWIDTH 8 0
BBX 6 15 1 0
BITMAP
FC
FC
E0
E0
E0
E0
FC
FC
E0
E0
E0
E0
E0
E0
E0
ENDCHAR
STARTCHAR 0047
ENCODING 71
SWIDTH 565 0
DWIDTH 11 0
BBX 9 15 1 0
BITMAP
3E00
7F00
E300
E380
E380
E000
E000
EF80
EF80
E380
E380
E380
E380
7F80
3D80
ENDCHAR
STARTCHAR 0048
ENCODING 72
SWIDTH 565 0
DWIDTH 11 0
BBX 9 15 1 0
BITMAP
E380
E380
E380
E380
E380
E380
FF80
FF80
E380
E380
E380
E380
E380
E380
E380
ENDCHAR
STARTCHAR 0049
ENCODING 73
SWIDTH 257 0
DWIDTH 5 0
BBX 3 15 1 0
BITMAP
E0
E0
E0
E0
E0
E0
E0
E0
E0
E0
E0
E0
E0
E0
E0
ENDCHAR
STARTCHAR 004A
ENCODING 74
SWIDTH 308 0
DWIDTH 6 0
BBX 5 15 0 0
BITMAP
38
38
38
38
38
38
38
38
38
38
38
38
38
F8
F0
ENDCHAR
STARTCHAR 004B
ENCODING 75
SWIDTH 514 0
DWIDTH 10 0
BBX 9 15 1 0
BITMAP
E380
E700
E700
EE00
EE00
FC00
FC00
FC00
EC00
EE00
EE00
E700
E700
E300
E380
ENDCHAR
STARTCHAR 004C
ENCODING 76
SWIDTH 411 0
DWIDTH 8 0
BBX 7 15 1 0
BITMAP
E0
E0
E0
E0
E0
E0
E0
E0
E0
E0
E0
E0
E0
FE
FE
ENDCHAR
STARTCHAR 004D
ENCODING 77
SWIDTH 668 0
DWIDTH 13 0
BBX 11 15 1 0
BITMAP
E0E0
F1E0
F1E0
F1E0
F1E0
D160
DB60
DB60
DB60
DA60
CE60
CE60
CE60
CE60
C460
ENDCHAR
STARTCHAR 004E
ENCODING 78
SWIDTH 514 0
DWIDTH 10 0
BBX 8 15 1 0
BITMAP
C3
E3
E3
F3
F3
FB
FB
FB
EF
EF
EF
E7
E7
E3
E3
ENDCHAR
STARTCHAR 004F
ENCODING 79
SWIDTH 565 0
DWIDTH 11 0
BBX 9 15 1 0
BITMAP
3E00
7F00
E300
E380
E380
E380
E380
E380
E380
E380
E380
E380
E300
7F00
3E00
ENDCHAR
STARTCHAR 0050
ENCODING 80
SWIDTH 514 0
DWIDTH 10 0
BBX 9 15 1 0
BITMAP
FE00
FF00
E300
E300
E380
E300
FF00
FE00
E000
E000
E000
E000
E000
E000
E000
ENDCHAR
STARTCHAR 0051
ENCODING 81
SWIDTH 565 0
DWIDTH 11 0
BBX 9 18 1 -3
BITMAP
3E00
7F00
E300
E380
E380
E380
E380
E380
E380
E380
E380
E380
E300
7F00
3E00
0700
0300
0100
ENDCHAR
STARTCHAR 0052
ENCODING 82
SWIDTH 565 0
DWIDTH 11 0
BBX 9 15 1 0
BITMAP
FE00
FF00
E300
E380
E380
E300
FF00
FE00
EE00
E600
E700
E700
E700
E300
E380
ENDCHAR
STARTCHAR 0053
ENCODING 83
SWIDTH 462 0
DWIDTH 9 0
BBX 8 15 1 0
BITMAP
7C
FE
E6
C7
E0
F0
78
3C
1E
0F
47
C7
E7
7E
3C
ENDCHAR
STARTCHAR 0054
ENCODING 84
SWIDTH 411 0
DWIDTH 8 0
BBX 8 15 0 0
BITMAP
FF
FF
18
18
18
18
18
18
18
18
18
18
18
18
18
ENDCHAR
STARTCHAR 0055
ENCODING 85
SWIDTH 565 0
DWIDTH 11 0
BBX 9 15 1 0
BITMAP
E380
E380
E380
E380
E380
E380
E380
E380
E380
E380
E380
E380
E300
7F00
3E00
ENDCHAR
STARTCHAR 0056
ENCODING 86
SWIDTH 514 0
DWIDTH 10 0
BBX 9 15 0 0
BITMAP
E180
6180
6380
7380
7300
3300
3300
3700
3F00
3E00
1E00
1E00
1E00
1E00
1C00
ENDCHAR
STARTCHAR 0057
ENCODING 87
SWIDTH 720 0
DWIDTH 14 0
BBX 12 15 1 0
BITMAP
C630
C630
CE70
CE70
EF60
EF60
6F60
6B60
7B60
79E0
79C0
79C0
79C0
31C0
31C0
ENDCHAR
STARTCHAR 0058
ENCODING 88
SWIDTH 462 0
DWIDTH 9 0
BBX 9 15 0 0
BITMAP
E380
7300
7300
3700
3E00
1E00
1E00
1C00
1E00
3E00
3600
3700
7300
6380
E380
ENDCHAR
STARTCHAR 0059
ENCODING 89
SWIDTH 462 0
DWIDTH 9 0
BBX 9 15 0 0
BITMAP
E380
6380
7300
7700
3700
3E00
3E00
1E00
1C00
1C00
1C00
1C00
1C00
1C00
1C00
ENDCHAR
STARTCHAR 005A
ENCODING 90
SWIDTH 411 0
DWIDTH 8 0
BBX 7 15 1 0
BITMAP
FE
FE
0C
1C
18
38
38
30
70
70
60
E0
E0
FE
FE
ENDCHAR
STARTCHAR 005B
ENCODING 91
SWIDTH 360 0
DWIDTH 7 0
BBX 5 18 1 -3
BITMAP
F8
C0
C0
C0
C0
C0
C0
C0
C0
C0
C0
C0
C0
C0
C0
C0
C0
F8
ENDCHAR
STARTCHAR 005C
ENCODING 92
SWIDTH 411 0
DWIDTH 8 0
BBX 6 15 1 0
BITMAP
C0
C0
C0
60
60
60
20
30
30
30
18
18
18
08
0C
ENDCHAR
STARTCHAR 005D
ENCODING 93
SWIDTH 308 0
DWIDTH 6 0
BBX 5 18 0 -3
BITMAP
F8
18
18
18
18
18
18
18
18
18
18
18
18
18
18
18
18
F8
ENDCHAR
STARTCHAR 005E
ENCODING 94
SWIDTH 462 0
DWIDTH 9 0
BBX 7 6 1 9
BITMAP
38
38
6C
6C
EE
C6
ENDCHAR
STARTCHAR 005F
ENCODING 95
SWIDTH 360 0
DWIDTH 7 0
BBX 7 2 0 -3
BITMAP
FE
FE
ENDCHAR
STARTCHAR 0060
ENCODING 96
SWIDTH 308 0
DWIDTH 6 0
BBX 4 4 1 11
BITMAP
E0
60
60
30
ENDCHAR
STARTCHAR 0061
ENCODING 97
SWIDTH 462 0
DWIDTH 9 0
BBX 7 11 1 0
BITMAP
78
FC
CE
CE
1E
7E
EE
CE
CE
FE
7E
ENDCHAR
STARTCHAR 0062
ENCODING 98
SWIDTH 462 0
DWIDTH 9 0
BBX 7 15 1 0
BITMAP
E0
E0
E0
E0
FC
FE
E6
E6
E6
E6
E6
E6
E6
FE
FC
ENDCHAR
STARTCHAR 0063
ENCODING 99
SWIDTH 411 0
DWIDTH 8 0
BBX 7 11 1 0
BITMAP
78
FC
CE
CE
C0
C0
C0
CE
CE
FC
78
ENDCHAR
STARTCHAR 0064
ENCODING 100
SWIDTH 462 0
DWIDTH 9 0
BBX 7 15 1 0
BITMAP
0E
0E
0E
0E
7E
FE
EE
CE
CE
CE
CE
CE
EE
FE
7E
ENDCHAR
STARTCHAR 0065
ENCODING 101
SWIDTH 411 0
DWIDTH 8 0
BBX 7 11 1 0
BITMAP
78
FC
CE
CE
FE
FE
C0
CE
CE
FC
78
ENDCHAR
STARTCHAR 0066
ENCODING 102
SWIDTH 308 0
DWIDTH 6 0
BBX 6 15 0 0
BITMAP
3C
3C
30
30
FC
FC
30
30
30
30
30
30
30
30
30
ENDCHAR
STARTCHAR 0067
ENCODING 103
SWIDTH 462 0
DWIDTH 9 0
BBX 9 14 0 -2
BITMAP
3D80
7F00
6600
6700
6700
6600
3E00
7C00
6000
7F00
6700
6300
FF00
7E00
ENDCHAR
STARTCHAR 0068
ENCODING 104
SWIDTH 462 0
DWIDTH 9 0
BBX 7 15 1 0
BITMAP
E0
E0
E0
E0
EE
FE
E6
E6
E6
E6
E6
E6
E6
E6
E6
ENDCHAR
STARTCHAR 0069
ENCODING 105
SWIDTH 257 0
DWIDTH 5 0
BBX 3 15 1 0
BITMAP
E0
E0
00
00
E0
E0
E0
E0
E0
E0
E0
E0
E0
E0
E0
ENDCHAR
STARTCHAR 006A
ENCODING 106
SWIDTH 257 0
DWIDTH 5 0
BBX 4 18 0 -3
BITMAP
70
70
00
00
70
70
70
70
70
70
70
70
70
70
70
70
F0
E0
ENDCHAR
STARTCHAR 006B
ENCODING 107
SWIDTH 462 0
DWIDTH 9 0
BBX 8 15 1 0
BITMAP
E0
E0
E0
E0
E7
EE
EE
FC
FC
FC
EC
EE
EE
E7
E7
ENDCHAR
STARTCHAR 006C
ENCODING 108
SWIDTH 257 0
DWIDTH 5 0
BBX 3 15 1 0
BITMAP
E0
E0
E0
E0
E0
E0
E0
E0
E0
E0
E0
E0
E0
E0
E0
ENDCHAR
STARTCHAR 006D
ENCODING 109
SWIDTH 720 0
DWIDTH 14 0
BBX 12 11 1 0
BITMAP
DCE0
FFF0
C670
C670
C670
C670
C670
C670
C670
C670
C670
ENDCHAR
STARTCHAR 006E
ENCODING 110
SWIDTH 462 0
DWIDTH 9 0
BBX 7 11 1 0
BITMAP
FE
FE
EE
EE
EE
EE
EE
EE
EE
EE
EE
ENDCHAR
STARTCHAR 006F
ENCODING 111
SWIDTH 462 0
DWIDTH 9 0
BBX 7 11 1 0
BITMAP
78
FC
CE
CE
CE
CE
CE
CE
CE
FC
78
ENDCHAR
STARTCHAR 0070
ENCODING 112
SWIDTH 462 0
DWIDTH 9 0
BBX 7 14 1 -3
BITMAP
FC
FE
E6
E6
E6
E6
E6
E6
E6
FE
FC
E0
E0
E0
ENDCHAR
STARTCHAR 0071
ENCODING 113
SWIDTH 462 0
DWIDTH 9 0
BBX 7 14 1 -3
BITMAP
7E
FE
EE
CE
CE
CE
CE
CE
EE
FE
7E
0E
0E
0E
ENDCHAR
STARTCHAR 0072
ENCODING 114
SWIDTH 360 0
DWIDTH 7 0
BBX 5 11 1 1
BITMAP
F8
F8
E0
E0
E0
E0
E0
E0
E0
E0
E0
ENDCHAR
STARTCHAR 0073
ENCODING 115
SWIDTH 411 0
DWIDTH 8 0
BBX 7 11 0 0
BITMAP
3C
7C
66
60
78
3C
1E
2E
E6
7E
3C
ENDCHAR
STARTCHAR 0074
ENCODING 116
SWIDTH 308 0
DWIDTH 6 0
BBX 6 14 0 0
BITMAP
70
70
70
FC
FC
70
70
70
70
70
70
70
3C
3C
ENDCHAR
STARTCHAR 0075
ENCODING 117
SWIDTH 462 0
DWIDTH 9 0
BBX 7 11 1 0
BITMAP
EE
EE
EE
EE
EE
EE
EE
EE
EE
FE
EE
ENDCHAR
STARTCHAR 0076
ENCODING 118
SWIDTH 411 0
DWIDTH 8 0
BBX 7 11 0 0
BITMAP
E6
66
66
6E
6E
7C
3C
3C
3C
3C
38
ENDCHAR
STARTCHAR 0077
ENCODING 119
SWIDTH 565 0
DWIDTH 11 0
BBX 11 11 0 0
BITMAP
E660
6E60
6EC0
6EC0
6EC0
6AC0
6BC0
3BC0
3B80
3980
3180
ENDCHAR
STARTCHAR 0078
ENCODING 120
SWIDTH 411 0
DWIDTH 8 0
BBX 8 11 0 0
BITMAP
E7
66
7E
3C
3C
38
3C
3C
6E
66
E7
ENDCHAR
STARTCHAR 0079
ENCODING 121
SWIDTH 411 0
DWIDTH 8 0
BBX 8 14 0 -3
BITMAP
E7
E6
66
66
7E
3E
3C
3C
3C
1C
18
18
78
70
ENDCHAR
STARTCHAR 007A
ENCODING 122
SWIDTH 360 0
DWIDTH 7 0
BBX 6 11 1 0
BITMAP
FC
F8
18
38
30
70
60
E0
E0
FC
FC
ENDCHAR
STARTCHAR 007B
ENCODING 123
SWIDTH 308 0
DWIDTH 6 0
BBX 5 18 1 -3
BITMAP
38
78
70
70
70
70
60
E0
E0
60
70
70
70
70
70
70
78
38
ENDCHAR
STARTCHAR 007C
ENCODING 124
SWIDTH 257 0
DWIDTH 5 0
BBX 3 18 1 -3
BITMAP
E0
E0
E0
E0
E0
E0
E0
E0
E0
E0
E0
E0
E0
E0
E0
E0
E0
E0
ENDCHAR
STARTCHAR 007D
ENCODING 125
SWIDTH 360 0
DWIDTH 7 0
BBX 5 18 1 -3
BITMAP
E0
F0
70
70
70
70
70
38
38
70
70
70
70
70
70
70
F0
E0
ENDCHAR
STARTCHAR 007E
ENCODING 126
SWIDTH 462 0
DWIDTH 9 0
BBX 7 3 1 7
BITMAP
62
FE
8C
ENDCHAR
STARTCHAR 00A0
ENCODING 160
SWIDTH 257 0
DWIDTH 5 0
BBX 0 0 0 0
BITMAP
ENDCHAR
STARTCHAR 00A1
ENCODING 161
SWIDTH 205 0
DWIDTH 4 0
BBX 2 15 1 -3
BITMAP
C0
C0
00
40
40
40
C0
C0
C0
C0
C0
C0
C0
C0
C0
ENDCHAR
STARTCHAR 00A2
ENCODING 162
SWIDTH 411 0
DWIDTH 8 0
BBX 7 15 1 -2
BITMAP
10
10
7C
FC
CE
CE
C0
C0
C0
CE
CE
FC
78
10
10
ENDCHAR
STARTCHAR 00A3
ENCODING 163
SWIDTH 411 0
DWIDTH 8 0
BBX 8 15 0 0
BITMAP
1E
3E
33
73
70
70
70
FC
FC
70
70
70
70
7F
FF
ENDCHAR
STARTCHAR 00A4
ENCODING 164
SWIDTH 565 0
DWIDTH 11 0
BBX 9 10 1 3
BITMAP
0080
BD00
6200
4100
8100
8100
4100
6200
BD00
0080
ENDCHAR
STARTCHAR 00A5
ENCODING 165
SWIDTH 462 0
DWIDTH 9 0
BBX 9 15 0 0
BITMAP
E380
6380
6300
7700
3700
3600
3E00
1E00
1C00
3F00
1C00
3F00
3F00
1C00
1C00
ENDCHAR
STARTCHAR 00A6
ENCODING 166
SWIDTH 205 0
DWIDTH 4 0
BBX 2 18 1 -3
BITMAP
C0
C0
C0
C0
C0
C0
C0
C0
00
00
C0
C0
C0
C0
C0
C0
C0
C0
ENDCHAR
STARTCHAR 00A7
ENCODING 167
SWIDTH 462 0
DWIDTH 9 0
BBX 7 15 1 0
BITMAP
78
FC
C6
E0
70
7C
CC
CE
EC
7C
1C
0E
CE
FC
78
ENDCHAR
STARTCHAR 00A8
ENCODING 168
SWIDTH 411 0
DWIDTH 8 0
BBX 6 2 1 12
BITMAP
CC
CC
ENDCHAR
STARTCHAR 00A9
ENCODING 169
SWIDTH 874 0
DWIDTH 17 0
BBX 15 15 1 0
BITMAP
0FC0
3030
67C8
4FE4
8CE4
9CE2
9C02
9C02
9C02
8CE2
8CE4
4FC4
6788
3030
0FC0
ENDCHAR
STARTCHAR 00AA
ENCODING 170
SWIDTH 462 0
DWIDTH 9 0
BBX 7 10 1 5
BITMAP
3C
7C
6C
0E
1E
7E
EE
EE
FE
6E
ENDCHAR
STARTCHAR 00AB
ENCODING 171
SWIDTH 462 0
DWIDTH 9 0
BBX 7 9 1 1
BITMAP
22
26
66
CC
88
CC
66
26
22
ENDCHAR
STARTCHAR 00AC
ENCODING 172
SWIDTH 411 0
DWIDTH 8 0
BBX 7 5 1 4
BITMAP
FE
FE
06
06
06
ENDCHAR
STARTCHAR 00AD
ENCODING 173
SWIDTH 360 0
DWIDTH 7 0
BBX 5 2 1 7
BITMAP
F8
F8
ENDCHAR
STARTCHAR 00AE
ENCODING 174
SWIDTH 874 0
DWIDTH 17 0
BBX 15 15 1 0
BITMAP
0FC0
1830
2FC8
4FE4
CE64
8E62
8EE2
8FC2
8FC2
8EC2
CEC4
4E64
2008
1830
0FC0
ENDCHAR
STARTCHAR 00AF
ENCODING 175
SWIDTH 257 0
DWIDTH 5 0
BBX 5 2 0 13
BITMAP
F8
F8
ENDCHAR
STARTCHAR 00B0
ENCODING 176
SWIDTH 462 0
DWIDTH 9 0
BBX 7 7 1 8
BITMAP
3C
7E
C6
C6
C6
7E
3C
ENDCHAR
STARTCHAR 00B1
ENCODING 177
SWIDTH 411 0
DWIDTH 8 0
BBX 6 9 1 0
BITMAP
30
30
FC
FC
30
30
00
FC
FC
ENDCHAR
STARTCHAR 00B2
ENCODING 178
SWIDTH 411 0
DWIDTH 8 0
BBX 6 11 1 6
BITMAP
38
7C
6C
4C
0C
18
18
30
60
FC
FC
ENDCHAR
STARTCHAR 00B3
ENCODING 179
SWIDTH 411 0
DWIDTH 8 0
BBX 6 11 1 6
BITMAP
38
7C
EC
0C
1C
1C
0C
EC
6C
7C
38
ENDCHAR
STARTCHAR 00B4
ENCODING 180
SWIDTH 308 0
DWIDTH 6 0
BBX 4 4 1 11
BITMAP
70
60
C0
C0
ENDCHAR
STARTCHAR 00B5
ENCODING 181
SWIDTH 462 0
DWIDTH 9 0
BBX 7 14 1 -3
BITMAP
CE
CE
CE
CE
CE
CE
CE
CE
CE
FE
FE
C0
C0
E0
ENDCHAR
STARTCHAR 00B6
ENCODING 182
SWIDTH 514 0
DWIDTH 10 0
BBX 7 17 1 -3
BITMAP
7E
FE
F2
F2
F2
72
12
12
12
12
12
12
12
12
12
12
12
ENDCHAR
STARTCHAR 00B7
ENCODING 183
SWIDTH 205 0
DWIDTH 4 0
BBX 2 2 1 7
BITMAP
C0
C0
ENDCHAR
STARTCHAR 00B8
ENCODING 184
SWIDTH 257 0
DWIDTH 5 0
BBX 4 5 1 -5
BITMAP
80
E0
30
30
E0
ENDCHAR
STARTCHAR 00B9
ENCODING 185
SWIDTH 411 0
DWIDTH 8 0
BBX 4 11 2 6
BITMAP
70
F0
B0
30
30
30
30
30
30
30
30
ENDCHAR
STARTCHAR 00BA
ENCODING 186
SWIDTH 462 0
DWIDTH 9 0
BBX 7 10 1 5
BITMAP
38
7C
EC
CE
CE
CE
CE
EC
7C
38
ENDCHAR
STARTCHAR 00BB
ENCODING 187
SWIDTH 462 0
DWIDTH 9 0
BBX 7 9 1 1
BITMAP
88
C8
CC
66
32
66
CC
C8
88
ENDCHAR
STARTCHAR 00BC
ENCODING 188
SWIDTH 720 0
DWIDTH 14 0
BBX 12 15 1 0
BITMAP
20C0
E180
E180
6100
6300
6200
6600
6620
0460
0CE0
08A0
19A0
19F0
1020
3020
ENDCHAR
STARTCHAR 00BD
ENCODING 189
SWIDTH 720 0
DWIDTH 14 0
BBX 12 15 1 0
BITMAP
6080
E180
E100
6300
6300
6200
6600
66F0
0CD0
0C10
0830
1860
18C0
30F0
30F0
ENDCHAR
STARTCHAR 00BE
ENCODING 190
SWIDTH 720 0
DWIDTH 14 0
BBX 13 15 1 0
BITMAP
F0C0
90C0
3180
6180
3100
9300
F300
0630
0670
0470
0CF0
0CB0
19F8
1830
3030
ENDCHAR
STARTCHAR 00BF
ENCODING 191
SWIDTH 514 0
DWIDTH 10 0
BBX 8 15 1 -2
BITMAP
0C
0C
00
0C
0C
1C
38
30
70
E0
E7
E7
E7
7E
3C
ENDCHAR
STARTCHAR 00C0
ENCODING 192
SWIDTH 514 0
DWIDTH 10 0
BBX 10 20 0 0
BITMAP
3000
3800
1800
0800
0000
1E00
1E00
1E00
1E00
1E00
3F00
3700
3300
3300
3300
7F80
7F80
6380
6180
E1C0
ENDCHAR
STARTCHAR 00C1
ENCODING 193
SWIDTH 514 0
DWIDTH 10 0
BBX 10 20 0 0
BITMAP
0700
0600
0C00
0C00
0000
1E00
1E00
1E00
1E00
1E00
3F00
3700
3300
3300
3300
7F80
7F80
6380
6180
E1C0
ENDCHAR
STARTCHAR 00C2
ENCODING 194
SWIDTH 514 0
DWIDTH 10 0
BBX 10 20 0 0
BITMAP
1C00
1600
3600
0000
0000
1E00
1E00
1E00
1E00
1E00
3F00
3700
3300
3300
3300
7F80
7F80
6380
6180
E1C0
ENDCHAR
STARTCHAR 00C3
ENCODING 195
SWIDTH 514 0
DWIDTH 10 0
BBX 10 19 0 0
BITMAP
1900
3F00
3200
0000
1E00
1E00
1E00
1E00
1E00
3F00
3700
3300
3300
3300
7F80
7F80
6380
6180
E1C0
ENDCHAR
STARTCHAR 00C4
ENCODING 196
SWIDTH 514 0
DWIDTH 10 0
BBX 10 19 0 0
BITMAP
3300
3300
0000
0000
1E00
1E00
1E00
1E00
1E00
3F00
3700
3300
3300
3300
7F80
7F80
6380
6180
E1C0
ENDCHAR
STARTCHAR 00C5
ENCODING 197
SWIDTH 514 0
DWIDTH 10 0
BBX 10 19 0 0
BITMAP
1C00
1200
1200
1C00
1E00
1E00
1E00
1E00
1E00
3F00
3700
3300
3300
3300
7F80
7F80
6380
6180
E1C0
ENDCHAR
STARTCHAR 00C6
ENCODING 198
SWIDTH 668 0
DWIDTH 13 0
BBX 13 15 -1 0
BITMAP
01F8
03F8
03C0
07C0
07C0
0FC0
0DF0
0DF0
1DC0
19C0
3FC0
3FC0
71C0
71F8
E1F8
ENDCHAR
STARTCHAR 00C7
ENCODING 199
SWIDTH 514 0
DWIDTH 10 0
BBX 8 20 1 -5
BITMAP
3E
7F
E3
E3
E3
E0
E0
E0
E0
E3
E3
E3
E3
7F
3E
10
1C
06
06
1C
ENDCHAR
STARTCHAR 00C8
ENCODING 200
SWIDTH 411 0
DWIDTH 8 0
BBX 7 20 1 0
BITMAP
60
70
30
10
00
FE
FE
E0
E0
E0
E0
FC
FC
E0
E0
E0
E0
E0
FE
FE
ENDCHAR
STARTCHAR 00C9
ENCODING 201
SWIDTH 411 0
DWIDTH 8 0
BBX 7 20 1 0
BITMAP
0E
0C
18
18
00
FE
FE
E0
E0
E0
E0
FC
FC
E0
E0
E0
E0
E0
FE
FE
ENDCHAR
STARTCHAR 00CA
ENCODING 202
SWIDTH 411 0
DWIDTH 8 0
BBX 7 20 1 0
BITMAP
38
2C
6C
00
00
FE
FE
E0
E0
E0
E0
FC
FC
E0
E0
E0
E0
E0
FE
FE
ENDCHAR
STARTCHAR 00CB
ENCODING 203
SWIDTH 411 0
DWIDTH 8 0
BBX 7 19 1 0
BITMAP
CC
CC
00
00
FE
FE
E0
E0
E0
E0
FC
FC
E0
E0
E0
E0
E0
FE
FE
ENDCHAR
STARTCHAR 00CC
ENCODING 204
SWIDTH 257 0
DWIDTH 5 0
BBX 4 20 0 0
BITMAP
C0
E0
60
20
00
70
70
70
70
70
70
70
70
70
70
70
70
70
70
70
ENDCHAR
STARTCHAR 00CD
ENCODING 205
SWIDTH 257 0
DWIDTH 5 0
BBX 5 20 1 0
BITMAP
38
30
60
60
00
E0
E0
E0
E0
E0
E0
E0
E0
E0
E0
E0
E0
E0
E0
E0
ENDCHAR
STARTCHAR 00CE
ENCODING 206
SWIDTH 257 0
DWIDTH 5 0
BBX 5 20 0 0
BITMAP
70
58
D8
00
00
70
70
70
70
70
70
70
70
70
70
70
70
70
70
70
ENDCHAR
STARTCHAR 00CF
ENCODING 207
SWIDTH 257 0
DWIDTH 5 0
BBX 6 19 0 0
BITMAP
CC
CC
00
00
70
70
70
70
70
70
70
70
70
70
70
70
70
70
70
ENDCHAR
STARTCHAR 00D0
ENCODING 208
SWIDTH 514 0
DWIDTH 10 0
BBX 10 15 0 0
BITMAP
7F00
7F80
7380
7180
71C0
71C0
F9C0
F9C0
71C0
71C0
71C0
7180
7380
7F80
7F00
ENDCHAR
STARTCHAR 00D1
ENCODING 209
SWIDTH 514 0
DWIDTH 10 0
BBX 8 19 1 0
BITMAP
32
7E
64
00
C3
E3
E3
F3
F3
FB
FB
FB
EF
EF
EF
E7
E7
E3
E3
ENDCHAR
STARTCHAR 00D2
ENCODING 210
SWIDTH 565 0
DWIDTH 11 0
BBX 9 20 1 0
BITMAP
3000
3800
1800
0800
0000
3E00
7F00
E300
E380
E380
E380
E380
E380
E380
E380
E380
E380
E300
7F00
3E00
ENDCHAR
STARTCHAR 00D3
ENCODING 211
SWIDTH 565 0
DWIDTH 11 0
BBX 9 20 1 0
BITMAP
0700
0600
0C00
0C00
0000
3E00
7F00
E300
E380
E380
E380
E380
E380
E380
E380
E380
E380
E300
7F00
3E00
ENDCHAR
STARTCHAR 00D4
ENCODING 212
SWIDTH 565 0
DWIDTH 11 0
BBX 9 20 1 0
BITMAP
1C00
1600
3600
0000
0000
3E00
7F00
E300
E380
E380
E380
E380
E380
E380
E380
E380
E380
E300
7F00
3E00
ENDCHAR
STARTCHAR 00D5
ENCODING 213
SWIDTH 565 0
DWIDTH 11 0
BBX 9 19 1 0
BITMAP
3200
7E00
6400
0000
3E00
7F00
E300
E380
E380
E380
E380
E380
E380
E380
E380
E380
E300
7F00
3E00
ENDCHAR
STARTCHAR 00D6
ENCODING 214
SWIDTH 565 0
DWIDTH 11 0
BBX 9 19 1 0
BITMAP
6600
6600
0000
0000
3E00
7F00
E300
E380
E380
E380
E380
E380
E380
E380
E380
E380
E300
7F00
3E00
ENDCHAR
STARTCHAR 00D7
ENCODING 215
SWIDTH 411 0
DWIDTH 8 0
BBX 6 6 1 4
BITMAP
48
CC
78
30
78
CC
ENDCHAR
STARTCHAR 00D8
ENCODING 216
SWIDTH 565 0
DWIDTH 11 0
BBX 9 17 1 -1
BITMAP
0200
3E00
7F00
E700
E780
E780
EB80
EB80
EB80
F380
F380
F380
E380
E300
7F00
3E00
4000
ENDCHAR
STARTCHAR 00D9
ENCODING 217
SWIDTH 565 0
DWIDTH 11 0
BBX 9 20 1 0
BITMAP
3000
3800
1800
0800
0000
E380
E380
E380
E380
E380
E380
E380
E380
E380
E380
E380
E380
E300
7F00
3E00
ENDCHAR
STARTCHAR 00DA
ENCODING 218
SWIDTH 565 0
DWIDTH 11 0
BBX 9 20 1 0
BITMAP
0700
0600
0C00
0C00
0000
E380
E380
E380
E380
E380
E380
E380
E380
E380
E380
E380
E380
E300
7F00
3E00
ENDCHAR
STARTCHAR 00DB
ENCODING 219
SWIDTH 565 0
DWIDTH 11 0
BBX 9 20 1 0
BITMAP
1C00
1600
3600
0000
0000
E380
E380
E380
E380
E380
E380
E380
E380
E380
E380
E380
E380
E300
7F00
3E00
ENDCHAR
STARTCHAR 00DC
ENCODING 220
SWIDTH 565 0
DWIDTH 11 0
BBX 9 19 1 0
BITMAP
6600
6600
0000
0000
E380
E380
E380
E380
E380
E380
E380
E380
E380
E380
E380
E380
E300
7F00
3E00
ENDCHAR
STARTCHAR 00DD
ENCODING 221
SWIDTH 462 0
DWIDTH 9 0
BBX 9 20 0 0
BITMAP
0700
0600
0C00
0C00
0000
E380
6380
7300
7700
3700
3E00
3E00
1E00
1C00
1C00
1C00
1C00
1C00
1C00
1C00
ENDCHAR
STARTCHAR 00DE
ENCODING 222
SWIDTH 514 0
DWIDTH 10 0
BBX 9 15 1 0
BITMAP
E000
E000
FE00
FF00
E380
E380
E380
E380
E300
FF00
FC00
E000
E000
E000
E000
ENDCHAR
STARTCHAR 00DF
ENCODING 223
SWIDTH 514 0
DWIDTH 10 0
BBX 8 15 1 0
BITMAP
3C
7E
E6
E7
E7
E6
EC
EE
E7
E3
E3
E3
E7
EE
EC
ENDCHAR
STARTCHAR 00E0
ENCODING 224
SWIDTH 462 0
DWIDTH 9 0
BBX 7 16 1 0
BITMAP
60
70
30
10
00
78
FC
CE
CE
1E
7E
EE
CE
CE
FE
7E
ENDCHAR
STARTCHAR 00E1
ENCODING 225
SWIDTH 462 0
DWIDTH 9 0
BBX 7 16 1 0
BITMAP
0E
0C
18
18
00
78
FC
CE
CE
1E
7E
EE
CE
CE
FE
7E
ENDCHAR
STARTCHAR 00E2
ENCODING 226
SWIDTH 462 0
DWIDTH 9 0
BBX 7 15 1 0
BITMAP
38
2C
6C
00
78
FC
CE
CE
1E
7E
EE
CE
CE
FE
7E
ENDCHAR
STARTCHAR 00E3
ENCODING 227
SWIDTH 462 0
DWIDTH 9 0
BBX 7 14 1 0
BITMAP
64
FC
C8
78
FC
CE
CE
1E
7E
EE
CE
CE
FE
7E
ENDCHAR
STARTCHAR 00E4
ENCODING 228
SWIDTH 462 0
DWIDTH 9 0
BBX 7 14 1 0
BITMAP
CC
CC
00
78
FC
CE
CE
1E
7E
EE
CE
CE
FE
7E
ENDCHAR
STARTCHAR 00E5
ENCODING 229
SWIDTH 462 0
DWIDTH 9 0
BBX 7 16 1 0
BITMAP
70
48
48
70
00
78
FC
CE
CE
1E
7E
EE
CE
CE
FE
7E
ENDCHAR
STARTCHAR 00E6
ENCODING 230
SWIDTH 668 0
DWIDTH 13 0
BBX 11 11 1 0
BITMAP
7BC0
FFC0
CEE0
CEE0
0FC0
7E00
EE00
CEE0
CEE0
FFC0
73C0
ENDCHAR
STARTCHAR 00E7
ENCODING 231
SWIDTH 411 0
DWIDTH 8 0
BBX 7 16 1 -5
BITMAP
78
FC
CE
CE
C0
C0
C0
CE
CE
FC
78
20
38
0C
0C
38
ENDCHAR
STARTCHAR 00E8
ENCODING 232
SWIDTH 411 0
DWIDTH 8 0
BBX 7 16 1 0
BITMAP
60
70
30
10
00
78
FC
CE
CE
FE
FE
C0
CE
CE
FC
78
ENDCHAR
STARTCHAR 00E9
ENCODING 233
SWIDTH 411 0
DWIDTH 8 0
BBX 7 16 1 0
BITMAP
0E
0C
18
18
00
78
FC
CE
CE
FE
FE
C0
CE
CE
FC
78
ENDCHAR
STARTCHAR 00EA
ENCODING 234
SWIDTH 411 0
DWIDTH 8 0
BBX 7 15 1 0
BITMAP
38
2C
6C
00
78
FC
CE
CE
FE
FE
C0
CE
CE
FC
78
ENDCHAR
STARTCHAR 00EB
ENCODING 235
SWIDTH 411 0
DWIDTH 8 0
BBX 7 14 1 0
BITMAP
CC
CC
00
78
FC
CE
CE
FE
FE
C0
CE
CE
FC
78
ENDCHAR
STARTCHAR 00EC
ENCODING 236
SWIDTH 257 0
DWIDTH 5 0
BBX 4 16 0 0
BITMAP
C0
E0
60
20
00
70
70
70
70
70
70
70
70
70
70
70
ENDCHAR
STARTCHAR 00ED
ENCODING 237
SWIDTH 257 0
DWIDTH 5 0
BBX 5 16 1 0
BITMAP
38
30
60
60
00
E0
E0
E0
E0
E0
E0
E0
E0
E0
E0
E0
ENDCHAR
STARTCHAR 00EE
ENCODING 238
SWIDTH 257 0
DWIDTH 5 0
BBX 5 15 0 0
BITMAP
70
58
D8
00
70
70
70
70
70
70
70
70
70
70
70
ENDCHAR
STARTCHAR 00EF
ENCODING 239
SWIDTH 257 0
DWIDTH 5 0
BBX 6 14 0 0
BITMAP
CC
CC
00
70
70
70
70
70
70
70
70
70
70
70
ENDCHAR
STARTCHAR 00F0
ENCODING 240
SWIDTH 462 0
DWIDTH 9 0
BBX 8 15 1 0
BITMAP
70
7F
3C
06
7E
7E
E6
E6
E6
E6
E6
E6
E6
7E
7C
ENDCHAR
STARTCHAR 00F1
ENCODING 241
SWIDTH 462 0
DWIDTH 9 0
BBX 7 14 1 0
BITMAP
64
FC
C8
FE
FE
EE
EE
EE
EE
EE
EE
EE
EE
EE
ENDCHAR
STARTCHAR 00F2
ENCODING 242
SWIDTH 462 0
DWIDTH 9 0
BBX 7 16 1 0
BITMAP
60
70
30
10
00
78
FC
CE
CE
CE
CE
CE
CE
CE
FC
78
ENDCHAR
STARTCHAR 00F3
ENCODING 243
SWIDTH 462 0
DWIDTH 9 0
BBX 7 16 1 0
BITMAP
0E
0C
18
18
00
78
FC
CE
CE
CE
CE
CE
CE
CE
FC
78
ENDCHAR
STARTCHAR 00F4
ENCODING 244
SWIDTH 462 0
DWIDTH 9 0
BBX 7 15 1 0
BITMAP
38
2C
6C
00
78
FC
CE
CE
CE
CE
CE
CE
CE
FC
78
ENDCHAR
STARTCHAR 00F5
ENCODING 245
SWIDTH 462 0
DWIDTH 9 0
BBX 7 14 1 0
BITMAP
64
FC
C8
78
FC
CE
CE
CE
CE
CE
CE
CE
FC
78
ENDCHAR
STARTCHAR 00F6
ENCODING 246
SWIDTH 462 0
DWIDTH 9 0
BBX 7 14 1 0
BITMAP
CC
CC
00
78
FC
CE
CE
CE
CE
CE
CE
CE
FC
78
ENDCHAR
STARTCHAR 00F7
ENCODING 247
SWIDTH 411 0
DWIDTH 8 0
BBX 7 9 0 3
BITMAP
18
18
00
FE
FE
00
00
18
18
ENDCHAR
STARTCHAR 00F8
ENCODING 248
SWIDTH 462 0
DWIDTH 9 0
BBX 7 15 1 -2
BITMAP
04
04
7C
FC
CE
CE
DE
DE
EE
EE
EE
FC
78
80
80
ENDCHAR
STARTCHAR 00F9
ENCODING 249
SWIDTH 462 0
DWIDTH 9 0
BBX 7 16 1 0
BITMAP
60
70
30
10
00
EE
EE
EE
EE
EE
EE
EE
EE
EE
FE
EE
ENDCHAR
STARTCHAR 00FA
ENCODING 250
SWIDTH 462 0
DWIDTH 9 0
BBX 7 16 1 0
BITMAP
0E
0C
18
18
00
EE
EE
EE
EE
EE
EE
EE
EE
EE
FE
EE
ENDCHAR
STARTCHAR 00FB
ENCODING 251
SWIDTH 462 0
DWIDTH 9 0
BBX 7 15 1 0
BITMAP
38
2C
6C
00
EE
EE
EE
EE
EE
EE
EE
EE
EE
FE
EE
ENDCHAR
STARTCHAR 00FC
ENCODING 252
SWIDTH 462 0
DWIDTH 9 0
BBX 7 14 1 0
BITMAP
66
66
00
EE
EE
EE
EE
EE
EE
EE
EE
EE
FE
EE
ENDCHAR
STARTCHAR 00FD
ENCODING 253
SWIDTH 411 0
DWIDTH 8 0
BBX 8 19 0 -3
BITMAP
0E
0C
18
18
00
E7
E6
66
66
7E
3E
3C
3C
3C
1C
18
18
78
70
ENDCHAR
STARTCHAR 00FE
ENCODING 254
SWIDTH 462 0
DWIDTH 9 0
BBX 7 18 1 -3
BITMAP
E0
E0
E0
E0
FC
FE
EE
E6
E6
E6
E6
E6
EE
FE
FC
E0
E0
E0
ENDCHAR
STARTCHAR 00FF
ENCODING 255
SWIDTH 411 0
DWIDTH 8 0
BBX 8 17 0 -3
BITMAP
66
66
00
E7
E6
66
66
7E
3E
3C
3C
3C
1C
18
18
78
70
ENDCHAR
STARTCHAR 0100
ENCODING 256
SWIDTH 514 0
DWIDTH 10 0
BBX 10 18 0 0
BITMAP
1F00
1F00
0000
1E00
1E00
1E00
1E00
1E00
3F00
3700
3300
3300
3300
7F80
7F80
6380
6180
E1C0
ENDCHAR
STARTCHAR 0101
ENCODING 257
SWIDTH 462 0
DWIDTH 9 0
BBX 7 13 1 0
BITMAP
7C
7C
78
FC
CE
CE
1E
7E
EE
CE
CE
FE
7E
ENDCHAR
STARTCHAR 0102
ENCODING 258
SWIDTH 514 0
DWIDTH 10 0
BBX 10 19 0 0
BITMAP
3100
1300
1E00
0000
1E00
1E00
1E00
1E00
1E00
3F00
3700
3300
3300
3300
7F80
7F80
6380
6180
E1C0
ENDCHAR
STARTCHAR 0103
ENCODING 259
SWIDTH 462 0
DWIDTH 9 0
BBX 7 15 1 0
BITMAP
C4
4C
78
00
78
FC
CE
CE
1E
7E
EE
CE
CE
FE
7E
ENDCHAR
STARTCHAR 0104
ENCODING 260
SWIDTH 514 0
DWIDTH 10 0
BBX 10 19 0 -5
BITMAP
1E00
1E00
1E00
1E00
1E00
3F00
3700
3300
3300
3300
7F80
7F80
6380
6180
E1C0
0100
0300
03C0
03C0
ENDCHAR
STARTCHAR 0105
ENCODING 261
SWIDTH 462 0
DWIDTH 9 0
BBX 7 15 1 -5
BITMAP
78
FC
CE
CE
1E
7E
EE
CE
CE
FE
7E
08
18
1E
1E
ENDCHAR
STARTCHAR 0106
ENCODING 262
SWIDTH 514 0
DWIDTH 10 0
BBX 8 20 1 0
BITMAP
0E
0C
18
18
00
3E
7F
E3
E3
E3
E0
E0
E0
E0
E3
E3
E3
E3
7F
3E
ENDCHAR
STARTCHAR 0107
ENCODING 263
SWIDTH 411 0
DWIDTH 8 0
BBX 7 16 1 0
BITMAP
0E
0C
18
18
00
78
FC
CE
CE
C0
C0
C0
CE
CE
FC
78
ENDCHAR
STARTCHAR 0108
ENCODING 264
SWIDTH 514 0
DWIDTH 10 0
BBX 8 20 1 0
BITMAP
1C
16
36
00
00
3E
7F
E3
E3
E3
E0
E0
E0
E0
E3
E3
E3
E3
7F
3E
ENDCHAR
STARTCHAR 0109
ENCODING 265
SWIDTH 411 0
DWIDTH 8 0
BBX 7 15 1 0
BITMAP
38
2C
6C
00
78
FC
CE
CE
C0
C0
C0
CE
CE
FC
78
ENDCHAR
STARTCHAR 010A
ENCODING 266
SWIDTH 514 0
DWIDTH 10 0
BBX 8 19 1 0
BITMAP
18
18
18
00
3E
7F
E3
E3
E3
E0
E0
E0
E0
E3
E3
E3
E3
7F
3E
ENDCHAR
STARTCHAR 010B
ENCODING 267
SWIDTH 411 0
DWIDTH 8 0
BBX 7 14 1 0
BITMAP
30
30
30
78
FC
CE
CE
C0
C0
C0
CE
CE
FC
78
ENDCHAR
STARTCHAR 010C
ENCODING 268
SWIDTH 514 0
DWIDTH 10 0
BBX 8 20 1 0
BITMAP
66
3C
38
00
00
3E
7F
E3
E3
E3
E0
E0
E0
E0
E3
E3
E3
E3
7F
3E
ENDCHAR
STARTCHAR 010D
ENCODING 269
SWIDTH 411 0
DWIDTH 8 0
BBX 7 15 1 0
BITMAP
CC
78
70
00
78
FC
CE
CE
C0
C0
C0
CE
CE
FC
78
ENDCHAR
STARTCHAR 010E
ENCODING 270
SWIDTH 565 0
DWIDTH 11 0
BBX 9 20 1 0
BITMAP
3300
1E00
1C00
0000
0000
FE00
FF00
E300
E380
E380
E380
E380
E380
E380
E380
E380
E380
E700
FF00
FE00
ENDCHAR
STARTCHAR 010F
ENCODING 271
SWIDTH 565 0
DWIDTH 11 0
BBX 10 15 1 0
BITMAP
0EC0
0EC0
0EC0
0EC0
7EC0
FE00
EE00
CE00
CE00
CE00
CE00
CE00
EE00
FE00
7E00
ENDCHAR
STARTCHAR 0110
ENCODING 272
SWIDTH 565 0
DWIDTH 11 0
BBX 10 15 0 0
BITMAP
7F00
7F80
7180
71C0
71C0
71C0
F9C0
F9C0
71C0
71C0
71C0
71C0
7180
7F80
7F00
ENDCHAR
STARTCHAR 0111
ENCODING 273
SWIDTH 462 0
DWIDTH 9 0
BBX 8 15 1 0
BITMAP
0E
3F
3F
0E
7E
FE
EE
CE
CE
CE
CE
CE
EE
FE
7E
ENDCHAR
STARTCHAR 0112
ENCODING 274
SWIDTH 411 0
DWIDTH 8 0
BBX 7 18 1 0
BITMAP
7C
7C
00
FE
FE
E0
E0
E0
E0
FC
FC
E0
E0
E0
E0
E0
FE
FE
ENDCHAR
STARTCHAR 0113
ENCODING 275
SWIDTH 411 0
DWIDTH 8 0
BBX 7 13 1 0
BITMAP
7C
7C
78
FC
CE
CE
FE
FE
C0
CE
CE
FC
78
ENDCHAR
STARTCHAR 0114
ENCODING 276
SWIDTH 411 0
DWIDTH 8 0
BBX 7 19 1 0
BITMAP
C4
4C
78
00
FE
FE
E0
E0
E0
E0
FC
FC
E0
E0
E0
E0
E0
FE
FE
ENDCHAR
STARTCHAR 0115
ENCODING 277
SWIDTH 411 0
DWIDTH 8 0
BBX 7 15 1 0
BITMAP
C4
4C
78
00
78
FC
CE
CE
FE
FE
C0
CE
CE
FC
78
ENDCHAR
STARTCHAR 0116
ENCODING 278
SWIDTH 411 0
DWIDTH 8 0
BBX 7 19 1 0
BITMAP
30
30
30
00
FE
FE
E0
E0
E0
E0
FC
FC
E0
E0
E0
E0
E0
FE
FE
ENDCHAR
STARTCHAR 0117
ENCODING 279
SWIDTH 411 0
DWIDTH 8 0
BBX 7 14 1 0
BITMAP
30
30
30
78
FC
CE
CE
FE
FE
C0
CE
CE
FC
78
ENDCHAR
STARTCHAR 0118
ENCODING 280
SWIDTH 411 0
DWIDTH 8 0
BBX 7 19 1 -5
BITMAP
FE
FE
E0
E0
E0
E0
FC
FC
E0
E0
E0
E0
E0
FE
FE
10
30
3C
3C
ENDCHAR
STARTCHAR 0119
ENCODING 281
SWIDTH 411 0
DWIDTH 8 0
BBX 7 15 1 -5
BITMAP
78
FC
CE
CE
FE
FE
C0
CE
CE
FC
78
20
60
78
78
ENDCHAR
STARTCHAR 011A
ENCODING 282
SWIDTH 411 0
DWIDTH 8 0
BBX 7 20 1 0
BITMAP
66
3C
38
00
00
FE
FE
E0
E0
E0
E0
FC
FC
E0
E0
E0
E0
E0
FE
FE
ENDCHAR
STARTCHAR 011B
ENCODING 283
SWIDTH 411 0
DWIDTH 8 0
BBX 7 15 1 0
BITMAP
CC
78
70
00
78
FC
CE
CE
FE
FE
C0
CE
CE
FC
78
ENDCHAR
STARTCHAR 011C
ENCODING 284
SWIDTH 565 0
DWIDTH 11 0
BBX 9 20 1 0
BITMAP
1C00
1600
3600
0000
0000
3E00
7F00
E300
E380
E380
E000
E000
EF80
EF80
E380
E380
E380
E380
7F80
3D80
ENDCHAR
STARTCHAR 011D
ENCODING 285
SWIDTH 462 0
DWIDTH 9 0
BBX 9 19 0 -3
BITMAP
1C00
1600
3600
0000
0000
3D80
7F00
6600
6700
6700
6600
3E00
7C00
6000
7F00
6700
6300
FF00
7E00
ENDCHAR
STARTCHAR 011E
ENCODING 286
SWIDTH 565 0
DWIDTH 11 0
BBX 9 19 1 0
BITMAP
6200
2600
3C00
0000
3E00
7F00
E300
E380
E380
E000
E000
EF80
EF80
E380
E380
E380
E380
7F80
3D80
ENDCHAR
STARTCHAR 011F
ENCODING 287
SWIDTH 462 0
DWIDTH 9 0
BBX 9 18 0 -3
BITMAP
3100
1300
1E00
0000
3D80
7F00
6600
6700
6700
6600
3E00
7C00
6000
7F00
6700
6300
FF00
7E00
ENDCHAR
STARTCHAR 0120
ENCODING 288
SWIDTH 565 0
DWIDTH 11 0
BBX 9 19 1 0
BITMAP
1800
1800
1800
0000
3E00
7F00
E300
E380
E380
E000
E000
EF80
EF80
E380
E380
E380
E380
7F80
3D80
ENDCHAR
STARTCHAR 0121
ENCODING 289
SWIDTH 462 0
DWIDTH 9 0
BBX 9 18 0 -3
BITMAP
0C00
0C00
0C00
0000
3D80
7F00
6600
6700
6700
6600
3E00
7C00
6000
7F00
6700
6300
FF00
7E00
ENDCHAR
STARTCHAR 0122
ENCODING 290
SWIDTH 565 0
DWIDTH 11 0
BBX 9 21 1 -6
BITMAP
3E00
7F00
E300
E380
E380
E000
E000
EF80
EF80
E380
E380
E380
E380
7F80
3D80
0000
0000
1C00
1C00
0400
1800
ENDCHAR
STARTCHAR 0123
ENCODING 291
SWIDTH 411 0
DWIDTH 8 0
BBX 9 22 0 -3
BITMAP
0400
0C00
0800
0C00
0C00
0000
0000
0000
3C80
7F80
6300
6300
6300
3F00
7E00
4000
7800
3F00
6380
E180
FF00
3E00
ENDCHAR
STARTCHAR 0124
ENCODING 292
SWIDTH 565 0
DWIDTH 11 0
BBX 9 20 1 0
BITMAP
1C00
1600
3600
0000
0000
E380
E380
E380
E380
E380
E380
FF80
FF80
E380
E380
E380
E380
E380
E380
E380
ENDCHAR
STARTCHAR 0125
ENCODING 293
SWIDTH 462 0
DWIDTH 9 0
BBX 7 20 1 0
BITMAP
38
2C
6C
00
00
E0
E0
E0
E0
EE
FE
E6
E6
E6
E6
E6
E6
E6
E6
E6
ENDCHAR
STARTCHAR 0126
ENCODING 294
SWIDTH 565 0
DWIDTH 11 0
BBX 11 15 0 0
BITMAP
71C0
71C0
FFE0
71C0
71C0
71C0
7FC0
7FC0
71C0
71C0
71C0
71C0
71C0
71C0
71C0
ENDCHAR
STARTCHAR 0127
ENCODING 295
SWIDTH 462 0
DWIDTH 9 0
BBX 8 15 0 0
BITMAP
70
FC
FC
70
77
7F
73
73
73
73
73
73
73
73
73
ENDCHAR
STARTCHAR 0128
ENCODING 296
SWIDTH 257 0
DWIDTH 5 0
BBX 6 19 0 0
BITMAP
64
FC
C8
00
70
70
70
70
70
70
70
70
70
70
70
70
70
70
70
ENDCHAR
STARTCHAR 0129
ENCODING 297
SWIDTH 257 0
DWIDTH 5 0
BBX 6 14 -1 0
BITMAP
64
FC
C8
38
38
38
38
38
38
38
38
38
38
38
ENDCHAR
STARTCHAR 012A
ENCODING 298
SWIDTH 257 0
DWIDTH 5 0
BBX 5 18 0 0
BITMAP
F8
F8
00
70
70
70
70
70
70
70
70
70
70
70
70
70
70
70
ENDCHAR
STARTCHAR 012B
ENCODING 299
SWIDTH 257 0
DWIDTH 5 0
BBX 5 13 0 0
BITMAP
F8
F8
70
70
70
70
70
70
70
70
70
70
70
ENDCHAR
STARTCHAR 012C
ENCODING 300
SWIDTH 257 0
DWIDTH 5 0
BBX 6 19 -1 0
BITMAP
C4
4C
78
00
38
38
38
38
38
38
38
38
38
38
38
38
38
38
38
ENDCHAR
STARTCHAR 012D
ENCODING 301
SWIDTH 257 0
DWIDTH 5 0
BBX 6 15 -1 0
BITMAP
C4
4C
78
00
38
38
38
38
38
38
38
38
38
38
38
ENDCHAR
STARTCHAR 012E
ENCODING 302
SWIDTH 257 0
DWIDTH 5 0
BBX 4 19 0 -5
BITMAP
70
70
70
70
70
70
70
70
70
70
70
70
70
70
70
40
C0
F0
F0
ENDCHAR
STARTCHAR 012F
ENCODING 303
SWIDTH 257 0
DWIDTH 5 0
BBX 4 19 0 -5
BITMAP
70
70
00
00
70
70
70
70
70
70
70
70
70
70
70
40
C0
F0
F0
ENDCHAR
STARTCHAR 0130
ENCODING 304
SWIDTH 257 0
DWIDTH 5 0
BBX 3 19 1 0
BITMAP
60
60
60
00
E0
E0
E0
E0
E0
E0
E0
E0
E0
E0
E0
E0
E0
E0
E0
ENDCHAR
STARTCHAR 0131
ENCODING 305
SWIDTH 257 0
DWIDTH 5 0
BBX 3 11 1 0
BITMAP
E0
E0
E0
E0
E0
E0
E0
E0
E0
E0
E0
ENDCHAR
STARTCHAR 0133
ENCODING 307
SWIDTH 514 0
DWIDTH 10 0
BBX 8 18 1 -3
BITMAP
E7
E7
00
00
E7
E7
E7
E7
E7
E7
E7
E7
E7
E7
E7
07
0F
0E
ENDCHAR
STARTCHAR 0134
ENCODING 308
SWIDTH 308 0
DWIDTH 6 0
BBX 6 19 0 0
BITMAP
38
2C
6C
00
38
38
38
38
38
38
38
38
38
38
38
38
38
F8
F0
ENDCHAR
STARTCHAR 0135
ENCODING 309
SWIDTH 257 0
DWIDTH 5 0
BBX 5 18 0 -3
BITMAP
70
58
D8
00
70
70
70
70
70
70
70
70
70
70
70
70
F0
E0
ENDCHAR
STARTCHAR 0136
ENCODING 310
SWIDTH 514 0
DWIDTH 10 0
BBX 9 20 1 -5
BITMAP
E380
E700
E700
EE00
EE00
FC00
FC00
FC00
EC00
EE00
EE00
E700
E700
E300
E380
0000
1C00
1C00
0400
1800
ENDCHAR
STARTCHAR 0137
ENCODING 311
SWIDTH 462 0
DWIDTH 9 0
BBX 8 20 1 -5
BITMAP
E0
E0
E0
E0
E7
EE
EE
FC
FC
FC
EC
EE
EE
E7
E7
00
38
38
08
30
ENDCHAR
STARTCHAR 0138
ENCODING 312
SWIDTH 462 0
DWIDTH 9 0
BBX 8 11 1 0
BITMAP
E7
EE
EC
FC
F8
FC
EC
EE
EE
E6
E7
ENDCHAR
STARTCHAR 0139
ENCODING 313
SWIDTH 411 0
DWIDTH 8 0
BBX 7 20 1 0
BITMAP
38
30
60
60
00
E0
E0
E0
E0
E0
E0
E0
E0
E0
E0
E0
E0
E0
FE
FE
ENDCHAR
STARTCHAR 013A
ENCODING 314
SWIDTH 257 0
DWIDTH 5 0
BBX 5 20 1 0
BITMAP
38
30
60
60
00
E0
E0
E0
E0
E0
E0
E0
E0
E0
E0
E0
E0
E0
E0
E0
ENDCHAR
STARTCHAR 013B
ENCODING 315
SWIDTH 411 0
DWIDTH 8 0
BBX 7 20 1 -5
BITMAP
E0
E0
E0
E0
E0
E0
E0
E0
E0
E0
E0
E0
E0
FE
FE
00
38
38
08
30
ENDCHAR
STARTCHAR 013C
ENCODING 316
SWIDTH 257 0
DWIDTH 5 0
BBX 3 20 1 -5
BITMAP
E0
E0
E0
E0
E0
E0
E0
E0
E0
E0
E0
E0
E0
E0
E0
00
E0
E0
20
C0
ENDCHAR
STARTCHAR 013D
ENCODING 317
SWIDTH 411 0
DWIDTH 8 0
BBX 7 15 1 0
BITMAP
E6
E6
E6
E6
E6
E0
E0
E0
E0
E0
E0
E0
E0
FE
FE
ENDCHAR
STARTCHAR 013E
ENCODING 318
SWIDTH 360 0
DWIDTH 7 0
BBX 6 15 1 0
BITMAP
EC
EC
EC
EC
EC
E0
E0
E0
E0
E0
E0
E0
E0
E0
E0
ENDCHAR
STARTCHAR 013F
ENCODING 319
SWIDTH 411 0
DWIDTH 8 0
BBX 7 15 1 0
BITMAP
E0
E0
E0
E0
E0
E0
EC
EC
E0
E0
E0
E0
E0
FE
FE
ENDCHAR
STARTCHAR 0140
ENCODING 320
SWIDTH 462 0
DWIDTH 9 0
BBX 7 15 1 0
BITMAP
E0
E0
E0
E0
E0
E0
E0
E6
E6
E0
E0
E0
E0
E0
E0
ENDCHAR
STARTCHAR 0141
ENCODING 321
SWIDTH 411 0
DWIDTH 8 0
BBX 8 15 0 0
BITMAP
70
70
70
70
74
7C
78
F0
F0
70
70
70
70
7F
7F
ENDCHAR
STARTCHAR 0142
ENCODING 322
SWIDTH 308 0
DWIDTH 6 0
BBX 6 15 0 0
BITMAP
30
30
30
30
34
38
F0
B0
30
30
30
30
30
30
30
ENDCHAR
STARTCHAR 0143
ENCODING 323
SWIDTH 514 0
DWIDTH 10 0
BBX 8 20 1 0
BITMAP
0E
0C
18
18
00
C3
E3
E3
F3
F3
FB
FB
FB
EF
EF
EF
E7
E7
E3
E3
ENDCHAR
STARTCHAR 0144
ENCODING 324
SWIDTH 462 0
DWIDTH 9 0
BBX 7 16 1 0
BITMAP
0E
0C
18
18
00
FE
FE
EE
EE
EE
EE
EE
EE
EE
EE
EE
ENDCHAR
STARTCHAR 0145
ENCODING 325
SWIDTH 514 0
DWIDTH 10 0
BBX 8 20 1 -5
BITMAP
C3
E3
E3
F3
F3
FB
FB
FB
EF
EF
EF
E7
E7
E3
E3
00
1C
1C
04
18
ENDCHAR
STARTCHAR 0146
ENCODING 326
SWIDTH 462 0
DWIDTH 9 0
BBX 7 16 1 -5
BITMAP
FE
FE
EE
EE
EE
EE
EE
EE
EE
EE
EE
00
38
38
08
30
ENDCHAR
STARTCHAR 0147
ENCODING 327
SWIDTH 514 0
DWIDTH 10 0
BBX 8 20 1 0
BITMAP
66
3C
38
00
00
C3
E3
E3
F3
F3
FB
FB
FB
EF
EF
EF
E7
E7
E3
E3
ENDCHAR
STARTCHAR 0148
ENCODING 328
SWIDTH 462 0
DWIDTH 9 0
BBX 7 15 1 0
BITMAP
66
3C
38
00
FE
FE
EE
EE
EE
EE
EE
EE
EE
EE
EE
ENDCHAR
STARTCHAR 0149
ENCODING 329
SWIDTH 462 0
DWIDTH 9 0
BBX 7 17 1 0
BITMAP
C0
C0
C0
C0
C0
00
FE
FE
EE
EE
EE
EE
EE
EE
EE
EE
EE
ENDCHAR
STARTCHAR 014A
ENCODING 330
SWIDTH 514 0
DWIDTH 10 0
BBX 8 18 1 -3
BITMAP
C3
E3
E3
F3
F3
FB
DB
DB
CF
CF
CF
C7
C7
C3
C3
03
0F
0E
ENDCHAR
STARTCHAR 014B
ENCODING 331
SWIDTH 411 0
DWIDTH 8 0
BBX 7 14 1 -3
BITMAP
DC
FE
CE
CE
CE
CE
CE
CE
CE
CE
CE
0E
3C
38
ENDCHAR
STARTCHAR 014C
ENCODING 332
SWIDTH 565 0
DWIDTH 11 0
BBX 9 18 1 0
BITMAP
3E00
3E00
0000
3E00
7F00
E300
E380
E380
E380
E380
E380
E380
E380
E380
E380
E300
7F00
3E00
ENDCHAR
STARTCHAR 014D
ENCODING 333
SWIDTH 462 0
DWIDTH 9 0
BBX 7 13 1 0
BITMAP
7C
7C
78
FC
CE
CE
CE
CE
CE
CE
CE
FC
78
ENDCHAR
STARTCHAR 014E
ENCODING 334
SWIDTH 565 0
DWIDTH 11 0
BBX 9 19 1 0
BITMAP
6200
2600
3C00
0000
3E00
7F00
E300
E380
E380
E380
E380
E380
E380
E380
E380
E380
E300
7F00
3E00
ENDCHAR
STARTCHAR 014F
ENCODING 335
SWIDTH 462 0
DWIDTH 9 0
BBX 7 15 1 0
BITMAP
C4
4C
78
00
78
FC
CE
CE
CE
CE
CE
CE
CE
FC
78
ENDCHAR
STARTCHAR 0150
ENCODING 336
SWIDTH 565 0
DWIDTH 11 0
BBX 9 20 1 0
BITMAP
1B80
1B00
1300
3600
0000
3E00
7F00
E300
E380
E380
E380
E380
E380
E380
E380
E380
E380
E300
7F00
3E00
ENDCHAR
STARTCHAR 0151
ENCODING 337
SWIDTH 462 0
DWIDTH 9 0
BBX 8 16 1 0
BITMAP
37
36
26
6C
00
78
FC
CE
CE
CE
CE
CE
CE
CE
FC
78
ENDCHAR
STARTCHAR 0152
ENCODING 338
SWIDTH 668 0
DWIDTH 13 0
BBX 12 15 1 0
BITMAP
3FF0
7FF0
E300
E300
E300
E300
E3E0
E3E0
E300
E300
E300
E300
E300
7FF0
3FF0
ENDCHAR
STARTCHAR 0153
ENCODING 339
SWIDTH 668 0
DWIDTH 13 0
BBX 11 11 1 0
BITMAP
7BC0
FFE0
EE60
EE60
EFE0
EFE0
EE00
EE60
EE60
FFE0
7BC0
ENDCHAR
STARTCHAR 0154
ENCODING 340
SWIDTH 565 0
DWIDTH 11 0
BBX 9 20 1 0
BITMAP
0700
0600
0C00
0C00
0000
FE00
FF00
E300
E380
E380
E300
FF00
FE00
EE00
E600
E700
E700
E700
E300
E380
ENDCHAR
STARTCHAR 0155
ENCODING 341
SWIDTH 360 0
DWIDTH 7 0
BBX 6 16 1 0
BITMAP
1C
18
30
30
00
F8
F8
E0
E0
E0
E0
E0
E0
E0
E0
E0
ENDCHAR
STARTCHAR 0156
ENCODING 342
SWIDTH 565 0
DWIDTH 11 0
BBX 9 20 1 -5
BITMAP
FE00
FF00
E300
E380
E380
E300
FF00
FE00
EE00
E600
E700
E700
E700
E300
E380
0000
1C00
1C00
0400
1800
ENDCHAR
STARTCHAR 0157
ENCODING 343
SWIDTH 360 0
DWIDTH 7 0
BBX 5 16 1 -4
BITMAP
F8
F8
E0
E0
E0
E0
E0
E0
E0
E0
E0
00
70
70
10
60
ENDCHAR
STARTCHAR 0158
ENCODING 344
SWIDTH 565 0
DWIDTH 11 0
BBX 9 20 1 0
BITMAP
3300
1E00
1C00
0000
0000
FE00
FF00
E300
E380
E380
E300
FF00
FE00
EE00
E600
E700
E700
E700
E300
E380
ENDCHAR
STARTCHAR 0159
ENCODING 345
SWIDTH 360 0
DWIDTH 7 0
BBX 6 15 1 0
BITMAP
CC
78
70
00
F8
F8
E0
E0
E0
E0
E0
E0
E0
E0
E0
ENDCHAR
STARTCHAR 015A
ENCODING 346
SWIDTH 462 0
DWIDTH 9 0
BBX 8 20 1 0
BITMAP
0E
0C
18
18
00
7C
FE
E6
C7
E0
F0
78
3C
1E
0F
47
C7
E7
7E
3C
ENDCHAR
STARTCHAR 015B
ENCODING 347
SWIDTH 411 0
DWIDTH 8 0
BBX 7 16 0 0
BITMAP
0E
0C
18
18
00
3C
7C
66
60
78
3C
1E
2E
E6
7E
3C
ENDCHAR
STARTCHAR 015C
ENCODING 348
SWIDTH 462 0
DWIDTH 9 0
BBX 8 20 1 0
BITMAP
38
2C
6C
00
00
7C
FE
E6
C7
E0
F0
78
3C
1E
0F
47
C7
E7
7E
3C
ENDCHAR
STARTCHAR 015D
ENCODING 349
SWIDTH 411 0
DWIDTH 8 0
BBX 7 15 0 0
BITMAP
38
2C
6C
00
3C
7C
66
60
78
3C
1E
2E
E6
7E
3C
ENDCHAR
STARTCHAR 015E
ENCODING 350
SWIDTH 462 0
DWIDTH 9 0
BBX 8 20 1 -5
BITMAP
7C
FE
E6
C7
E0
F0
78
3C
1E
0F
47
C7
E7
7E
3C
10
1C
06
06
1C
ENDCHAR
STARTCHAR 015F
ENCODING 351
SWIDTH 411 0
DWIDTH 8 0
BBX 7 16 0 -5
BITMAP
3C
7C
66
60
78
3C
1E
2E
E6
7E
3C
10
1C
06
06
1C
ENDCHAR
STARTCHAR 0160
ENCODING 352
SWIDTH 462 0
DWIDTH 9 0
BBX 8 20 1 0
BITMAP
66
3C
38
00
00
7C
FE
E6
C7
E0
F0
78
3C
1E
0F
47
C7
E7
7E
3C
ENDCHAR
STARTCHAR 0161
ENCODING 353
SWIDTH 411 0
DWIDTH 8 0
BBX 7 15 0 0
BITMAP
66
3C
38
00
3C
7C
66
60
78
3C
1E
2E
E6
7E
3C
ENDCHAR
STARTCHAR 0162
ENCODING 354
SWIDTH 411 0
DWIDTH 8 0
BBX 8 20 0 -5
BITMAP
FF
FF
18
18
18
18
18
18
18
18
18
18
18
18
18
10
1C
06
06
1C
ENDCHAR
STARTCHAR 0163
ENCODING 355
SWIDTH 308 0
DWIDTH 6 0
BBX 7 19 0 -5
BITMAP
70
70
70
FC
FC
70
70
70
70
70
70
70
3C
3C
10
1C
06
06
1C
ENDCHAR
STARTCHAR 0164
ENCODING 356
SWIDTH 411 0
DWIDTH 8 0
BBX 8 20 0 0
BITMAP
66
3C
38
00
00
FF
FF
18
18
18
18
18
18
18
18
18
18
18
18
18
ENDCHAR
STARTCHAR 0165
ENCODING 357
SWIDTH 360 0
DWIDTH 7 0
BBX 8 17 0 0
BITMAP
03
03
03
73
73
70
FC
FC
70
70
70
70
70
70
70
3C
3C
ENDCHAR
STARTCHAR 0166
ENCODING 358
SWIDTH 411 0
DWIDTH 8 0
BBX 8 15 0 0
BITMAP
FF
FF
18
18
18
18
7E
7E
18
18
18
18
18
18
18
ENDCHAR
STARTCHAR 0167
ENCODING 359
SWIDTH 257 0
DWIDTH 5 0
BBX 6 14 0 0
BITMAP
70
70
70
FC
FC
70
FC
FC
70
70
70
70
3C
3C
ENDCHAR
STARTCHAR 0168
ENCODING 360
SWIDTH 565 0
DWIDTH 11 0
BBX 9 19 1 0
BITMAP
3200
7E00
6400
0000
E380
E380
E380
E380
E380
E380
E380
E380
E380
E380
E380
E380
E300
7F00
3E00
ENDCHAR
STARTCHAR 0169
ENCODING 361
SWIDTH 462 0
DWIDTH 9 0
BBX 7 14 1 0
BITMAP
64
FC
C8
EE
EE
EE
EE
EE
EE
EE
EE
EE
FE
EE
ENDCHAR
STARTCHAR 016A
ENCODING 362
SWIDTH 565 0
DWIDTH 11 0
BBX 9 18 1 0
BITMAP
3E00
3E00
0000
E380
E380
E380
E380
E380
E380
E380
E380
E380
E380
E380
E380
E300
7F00
3E00
ENDCHAR
STARTCHAR 016B
ENCODING 363
SWIDTH 462 0
DWIDTH 9 0
BBX 7 13 1 0
BITMAP
7C
7C
EE
EE
EE
EE
EE
EE
EE
EE
EE
FE
EE
ENDCHAR
STARTCHAR 016C
ENCODING 364
SWIDTH 565 0
DWIDTH 11 0
BBX 9 19 1 0
BITMAP
6200
2600
3C00
0000
E380
E380
E380
E380
E380
E380
E380
E380
E380
E380
E380
E380
E300
7F00
3E00
ENDCHAR
STARTCHAR 016D
ENCODING 365
SWIDTH 462 0
DWIDTH 9 0
BBX 7 15 1 0
BITMAP
C4
4C
78
00
EE
EE
EE
EE
EE
EE
EE
EE
EE
FE
EE
ENDCHAR
STARTCHAR 016E
ENCODING 366
SWIDTH 565 0
DWIDTH 11 0
BBX 9 20 1 0
BITMAP
1C00
1200
1200
1C00
0000
E380
E380
E380
E380
E380
E380
E380
E380
E380
E380
E380
E380
E300
7F00
3E00
ENDCHAR
STARTCHAR 016F
ENCODING 367
SWIDTH 462 0
DWIDTH 9 0
BBX 7 16 1 0
BITMAP
38
24
24
38
00
EE
EE
EE
EE
EE
EE
EE
EE
EE
FE
EE
ENDCHAR
STARTCHAR 0170
ENCODING 368
SWIDTH 565 0
DWIDTH 11 0
BBX 9 20 1 0
BITMAP
1B80
1B00
1300
3600
0000
E380
E380
E380
E380
E380
E380
E380
E380
E380
E380
E380
E380
E300
7F00
3E00
ENDCHAR
STARTCHAR 0171
ENCODING 369
SWIDTH 462 0
DWIDTH 9 0
BBX 8 16 1 0
BITMAP
37
36
26
6C
00
EE
EE
EE
EE
EE
EE
EE
EE
EE
FE
EE
ENDCHAR
STARTCHAR 0172
ENCODING 370
SWIDTH 565 0
DWIDTH 11 0
BBX 9 19 1 -5
BITMAP
E380
E380
E380
E380
E380
E380
E380
E380
E380
E380
E380
E380
E300
7F00
3E00
1000
3000
3C00
3C00
ENDCHAR
STARTCHAR 0173
ENCODING 371
SWIDTH 462 0
DWIDTH 9 0
BBX 7 15 1 -5
BITMAP
EE
EE
EE
EE
EE
EE
EE
EE
EE
FE
EE
08
18
1E
1E
ENDCHAR
STARTCHAR 0174
ENCODING 372
SWIDTH 720 0
DWIDTH 14 0
BBX 12 20 1 0
BITMAP
0E00
0B00
1B00
0000
0000
C630
C630
CE70
CE70
EF60
EF60
6F60
6B60
7B60
79E0
79C0
79C0
79C0
31C0
31C0
ENDCHAR
STARTCHAR 0175
ENCODING 373
SWIDTH 565 0
DWIDTH 11 0
BBX 11 15 0 0
BITMAP
0E00
0B00
1B00
0000
E660
6E60
6EC0
6EC0
6EC0
6AC0
6BC0
3BC0
3B80
3980
3180
ENDCHAR
STARTCHAR 0176
ENCODING 374
SWIDTH 462 0
DWIDTH 9 0
BBX 9 20 0 0
BITMAP
1C00
1600
3600
0000
0000
E380
6380
7300
7700
3700
3E00
3E00
1E00
1C00
1C00
1C00
1C00
1C00
1C00
1C00
ENDCHAR
STARTCHAR 0177
ENCODING 375
SWIDTH 411 0
DWIDTH 8 0
BBX 8 18 0 -3
BITMAP
38
2C
6C
00
E7
E6
66
66
7E
3E
3C
3C
3C
1C
18
18
78
70
ENDCHAR
STARTCHAR 0178
ENCODING 376
SWIDTH 462 0
DWIDTH 9 0
BBX 9 19 0 0
BITMAP
3300
3300
0000
0000
E380
6380
7300
7700
3700
3E00
3E00
1E00
1C00
1C00
1C00
1C00
1C00
1C00
1C00
ENDCHAR
STARTCHAR 0179
ENCODING 377
SWIDTH 411 0
DWIDTH 8 0
BBX 7 20 1 0
BITMAP
1C
18
30
30
00
FE
FE
0C
1C
18
38
38
30
70
70
60
E0
E0
FE
FE
ENDCHAR
STARTCHAR 017A
ENCODING 378
SWIDTH 360 0
DWIDTH 7 0
BBX 6 16 1 0
BITMAP
1C
18
30
30
00
FC
F8
18
38
30
70
60
E0
E0
FC
FC
ENDCHAR
STARTCHAR 017B
ENCODING 379
SWIDTH 411 0
DWIDTH 8 0
BBX 7 19 1 0
BITMAP
30
30
30
00
FE
FE
0C
1C
18
38
38
30
70
70
60
E0
E0
FE
FE
ENDCHAR
STARTCHAR 017C
ENCODING 380
SWIDTH 360 0
DWIDTH 7 0
BBX 6 14 1 0
BITMAP
30
30
30
FC
F8
18
38
30
70
60
E0
E0
FC
FC
ENDCHAR
STARTCHAR 017D
ENCODING 381
SWIDTH 411 0
DWIDTH 8 0
BBX 7 20 1 0
BITMAP
CC
78
70
00
00
FE
FE
0C
1C
18
38
38
30
70
70
60
E0
E0
FE
FE
ENDCHAR
STARTCHAR 017E
ENCODING 382
SWIDTH 360 0
DWIDTH 7 0
BBX 6 15 1 0
BITMAP
CC
78
70
00
FC
F8
18
38
30
70
60
E0
E0
FC
FC
ENDCHAR
STARTCHAR 0192
ENCODING 402
SWIDTH 411 0
DWIDTH 8 0
BBX 8 17 0 -2
BITMAP
0F
0E
1C
1C
3E
3E
18
18
18
18
38
38
38
38
38
F0
F0
ENDCHAR
STARTCHAR 01C4
ENCODING 452
SWIDTH 977 0
DWIDTH 19 0
BBX 18 20 1 0
BITMAP
001980
000F00
000E00
000000
000000
FE1FC0
FF1FC0
E30180
E38380
E38300
E38700
E38700
E38600
E38E00
E38E00
E38C00
E39C00
E71C00
FF1FC0
FE1FC0
ENDCHAR
STARTCHAR 01C5
ENCODING 453
SWIDTH 925 0
DWIDTH 18 0
BBX 17 15 1 0
BITMAP
FE1980
FF0F00
E30E00
E38000
E39F80
E39F00
E38300
E38700
E38600
E38E00
E38C00
E39C00
E71C00
FF1F80
FE1F80
ENDCHAR
STARTCHAR 01C6
ENCODING 454
SWIDTH 822 0
DWIDTH 16 0
BBX 15 15 1 0
BITMAP
0E66
0E3C
0E38
0E00
7E7E
FE7C
EE0C
CE1C
CE18
CE38
CE30
CE70
EE70
FE7E
7E7E
ENDCHAR
STARTCHAR 01C7
ENCODING 455
SWIDTH 720 0
DWIDTH 14 0
BBX 12 15 1 0
BITMAP
E070
E070
E070
E070
E070
E070
E070
E070
E070
E070
E070
E070
E070
FFF0
FFE0
ENDCHAR
STARTCHAR 01C8
ENCODING 456
SWIDTH 668 0
DWIDTH 13 0
BBX 11 18 1 -3
BITMAP
E0E0
E0E0
E000
E000
E0E0
E0E0
E0E0
E0E0
E0E0
E0E0
E0E0
E0E0
E0E0
FEE0
FEE0
00E0
01E0
01C0
ENDCHAR
STARTCHAR 01C9
ENCODING 457
SWIDTH 514 0
DWIDTH 10 0
BBX 8 18 1 -3
BITMAP
E7
E7
E0
E0
E7
E7
E7
E7
E7
E7
E7
E7
E7
E7
E7
07
0F
0E
ENDCHAR
STARTCHAR 01CA
ENCODING 458
SWIDTH 874 0
DWIDTH 17 0
BBX 14 15 1 0
BITMAP
C31C
E31C
E31C
F31C
F31C
FB1C
FB1C
FB1C
EF1C
EF1C
EF1C
E71C
E71C
E37C
E378
ENDCHAR
STARTCHAR 01CB
ENCODING 459
SWIDTH 771 0
DWIDTH 15 0
BBX 13 18 1 -3
BITMAP
C338
E338
E300
F300
F338
FB38
FB38
FB38
EF38
EF38
EF38
E738
E738
E338
E338
0038
0078
0070
ENDCHAR
STARTCHAR 01CC
ENCODING 460
SWIDTH 720 0
DWIDTH 14 0
BBX 12 18 1 -3
BITMAP
0070
0070
0000
0000
FE70
FE70
EE70
EE70
EE70
EE70
EE70
EE70
EE70
EE70
EE70
0070
00F0
00E0
ENDCHAR
STARTCHAR 01F1
ENCODING 497
SWIDTH 977 0
DWIDTH 19 0
BBX 18 15 1 0
BITMAP
FE1FC0
FF1FC0
E30180
E38380
E38300
E38700
E38700
E38600
E38E00
E38E00
E38C00
E39C00
E71C00
FF1FC0
FE1FC0
ENDCHAR
STARTCHAR 01F2
ENCODING 498
SWIDTH 925 0
DWIDTH 18 0
BBX 17 15 1 0
BITMAP
FE0000
FF0000
E30000
E38000
E39F80
E39F00
E38300
E38700
E38600
E38E00
E38C00
E39C00
E71C00
FF1F80
FE1F80
ENDCHAR
STARTCHAR 01F3
ENCODING 499
SWIDTH 822 0
DWIDTH 16 0
BBX 15 15 1 0
BITMAP
0E00
0E00
0E00
0E00
7E7E
FE7C
EE0C
CE1C
CE18
CE38
CE30
CE70
EE70
FE7E
7E7E
ENDCHAR
STARTCHAR 01F4
ENCODING 500
SWIDTH 565 0
DWIDTH 11 0
BBX 9 20 1 0
BITMAP
0700
0600
0C00
0C00
0000
3E00
7F00
E300
E380
E380
E000
E000
EF80
EF80
E380
E380
E380
E380
7F80
3D80
ENDCHAR
STARTCHAR 01F5
ENCODING 501
SWIDTH 462 0
DWIDTH 9 0
BBX 9 19 0 -3
BITMAP
0700
0600
0C00
0C00
0000
3D80
7F00
6600
6700
6700
6600
3E00
7C00
6000
7F00
6700
6300
FF00
7E00
ENDCHAR
STARTCHAR 0200
ENCODING 512
SWIDTH 514 0
DWIDTH 10 0
BBX 10 20 0 0
BITMAP
EC00
6C00
2400
3600
0000
1E00
1E00
1E00
1E00
1E00
3F00
3700
3300
3300
3300
7F80
7F80
6380
6180
E1C0
ENDCHAR
STARTCHAR 0201
ENCODING 513
SWIDTH 462 0
DWIDTH 9 0
BBX 8 15 0 0
BITMAP
EC
6C
24
36
3C
7E
67
67
0F
3F
77
67
67
7F
3F
ENDCHAR
STARTCHAR 0202
ENCODING 514
SWIDTH 514 0
DWIDTH 10 0
BBX 10 19 0 0
BITMAP
1E00
1300
1300
0000
1E00
1E00
1E00
1E00
1E00
3F00
3700
3300
3300
3300
7F80
7F80
6380
6180
E1C0
ENDCHAR
STARTCHAR 0203
ENCODING 515
SWIDTH 462 0
DWIDTH 9 0
BBX 7 15 1 0
BITMAP
78
4C
4C
00
78
FC
CE
CE
1E
7E
EE
CE
CE
FE
7E
ENDCHAR
STARTCHAR 0204
ENCODING 516
SWIDTH 411 0
DWIDTH 8 0
BBX 8 20 0 0
BITMAP
EC
6C
24
36
00
7F
7F
70
70
70
70
7E
7E
70
70
70
70
70
7F
7F
ENDCHAR
STARTCHAR 0205
ENCODING 517
SWIDTH 411 0
DWIDTH 8 0
BBX 8 15 0 0
BITMAP
EC
6C
24
36
3C
7E
67
67
7F
7F
60
67
67
7E
3C
ENDCHAR
STARTCHAR 0206
ENCODING 518
SWIDTH 411 0
DWIDTH 8 0
BBX 7 19 1 0
BITMAP
78
4C
4C
00
FE
FE
E0
E0
E0
E0
FC
FC
E0
E0
E0
E0
E0
FE
FE
ENDCHAR
STARTCHAR 0207
ENCODING 519
SWIDTH 411 0
DWIDTH 8 0
BBX 7 15 1 0
BITMAP
78
4C
4C
00
78
FC
CE
CE
FE
FE
C0
CE
CE
FC
78
ENDCHAR
STARTCHAR 0208
ENCODING 520
SWIDTH 257 0
DWIDTH 5 0
BBX 7 20 -2 0
BITMAP
EC
6C
24
36
00
1C
1C
1C
1C
1C
1C
1C
1C
1C
1C
1C
1C
1C
1C
1C
ENDCHAR
STARTCHAR 0209
ENCODING 521
SWIDTH 257 0
DWIDTH 5 0
BBX 7 15 -2 0
BITMAP
EC
6C
24
36
1C
1C
1C
1C
1C
1C
1C
1C
1C
1C
1C
ENDCHAR
STARTCHAR 020A
ENCODING 522
SWIDTH 257 0
DWIDTH 5 0
BBX 5 19 0 0
BITMAP
F0
98
98
00
70
70
70
70
70
70
70
70
70
70
70
70
70
70
70
ENDCHAR
STARTCHAR 020B
ENCODING 523
SWIDTH 257 0
DWIDTH 5 0
BBX 5 15 0 0
BITMAP
F0
98
98
00
70
70
70
70
70
70
70
70
70
70
70
ENDCHAR
STARTCHAR 020C
ENCODING 524
SWIDTH 565 0
DWIDTH 11 0
BBX 9 20 1 0
BITMAP
EC00
6C00
2400
3600
0000
3E00
7F00
E300
E380
E380
E380
E380
E380
E380
E380
E380
E380
E300
7F00
3E00
ENDCHAR
STARTCHAR 020D
ENCODING 525
SWIDTH 462 0
DWIDTH 9 0
BBX 8 15 0 0
BITMAP
EC
6C
24
36
3C
7E
67
67
67
67
67
67
67
7E
3C
ENDCHAR
STARTCHAR 020E
ENCODING 526
SWIDTH 565 0
DWIDTH 11 0
BBX 9 19 1 0
BITMAP
3C00
2600
2600
0000
3E00
7F00
E300
E380
E380
E380
E380
E380
E380
E380
E380
E380
E300
7F00
3E00
ENDCHAR
STARTCHAR 020F
ENCODING 527
SWIDTH 462 0
DWIDTH 9 0
BBX 7 15 1 0
BITMAP
78
4C
4C
00
78
FC
CE
CE
CE
CE
CE
CE
CE
FC
78
ENDCHAR
STARTCHAR 0210
ENCODING 528
SWIDTH 565 0
DWIDTH 11 0
BBX 9 20 1 0
BITMAP
EC00
6C00
2400
3600
0000
FE00
FF00
E300
E380
E380
E300
FF00
FE00
EE00
E600
E700
E700
E700
E300
E380
ENDCHAR
STARTCHAR 0211
ENCODING 529
SWIDTH 360 0
DWIDTH 7 0
BBX 7 15 -1 0
BITMAP
EC
6C
24
34
3E
3E
38
38
38
38
38
38
38
38
38
ENDCHAR
STARTCHAR 0212
ENCODING 530
SWIDTH 565 0
DWIDTH 11 0
BBX 9 19 1 0
BITMAP
3C00
2600
2600
0000
FE00
FF00
E300
E380
E380
E300
FF00
FE00
EE00
E600
E700
E700
E700
E300
E380
ENDCHAR
STARTCHAR 0213
ENCODING 531
SWIDTH 360 0
DWIDTH 7 0
BBX 6 15 1 0
BITMAP
78
4C
4C
00
F8
F8
E0
E0
E0
E0
E0
E0
E0
E0
E0
ENDCHAR
STARTCHAR 0214
ENCODING 532
SWIDTH 565 0
DWIDTH 11 0
BBX 9 20 1 0
BITMAP
EC00
6C00
2400
3600
0000
E380
E380
E380
E380
E380
E380
E380
E380
E380
E380
E380
E380
E300
7F00
3E00
ENDCHAR
STARTCHAR 0215
ENCODING 533
SWIDTH 462 0
DWIDTH 9 0
BBX 8 15 0 0
BITMAP
EC
6C
24
34
77
77
77
77
77
77
77
77
77
7F
77
ENDCHAR
STARTCHAR 0216
ENCODING 534
SWIDTH 565 0
DWIDTH 11 0
BBX 9 19 1 0
BITMAP
3C00
2600
2600
0000
E380
E380
E380
E380
E380
E380
E380
E380
E380
E380
E380
E380
E300
7F00
3E00
ENDCHAR
STARTCHAR 0217
ENCODING 535
SWIDTH 462 0
DWIDTH 9 0
BBX 7 15 1 0
BITMAP
78
4C
4C
00
EE
EE
EE
EE
EE
EE
EE
EE
EE
FE
EE
ENDCHAR
STARTCHAR 0218
ENCODING 536
SWIDTH 462 0
DWIDTH 9 0
BBX 8 21 1 -6
BITMAP
7C
FE
E6
C7
E0
F0
78
3C
1E
0F
47
C7
E7
7E
3C
00
00
38
38
08
30
ENDCHAR
STARTCHAR 0219
ENCODING 537
SWIDTH 411 0
DWIDTH 8 0
BBX 7 17 0 -6
BITMAP
3C
7C
66
60
78
3C
1E
2E
E6
7E
3C
00
00
38
38
08
30
ENDCHAR
STARTCHAR 021A
ENCODING 538
SWIDTH 411 0
DWIDTH 8 0
BBX 8 20 0 -5
BITMAP
FF
FF
18
18
18
18
18
18
18
18
18
18
18
18
18
00
38
38
08
30
ENDCHAR
STARTCHAR 021B
ENCODING 539
SWIDTH 308 0
DWIDTH 6 0
BBX 6 20 0 -6
BITMAP
70
70
70
FC
FC
70
70
70
70
70
70
70
3C
3C
00
00
70
70
10
60
ENDCHAR
STARTCHAR 0237
ENCODING 567
SWIDTH 257 0
DWIDTH 5 0
BBX 4 14 0 -3
BITMAP
70
70
70
70
70
70
70
70
70
70
70
70
F0
E0
ENDCHAR
STARTCHAR 02BC
ENCODING 700
SWIDTH 360 0
DWIDTH 7 0
BBX 2 5 2 10
BITMAP
C0
C0
C0
C0
C0
ENDCHAR
STARTCHAR 02C6
ENCODING 710
SWIDTH 360 0
DWIDTH 7 0
BBX 5 4 1 11
BITMAP
70
70
D8
D8
ENDCHAR
STARTCHAR 02C7
ENCODING 711
SWIDTH 360 0
DWIDTH 7 0
BBX 5 3 1 12
BITMAP
D8
D8
70
ENDCHAR
STARTCHAR 02D8
ENCODING 728
SWIDTH 308 0
DWIDTH 6 0
BBX 5 2 1 12
BITMAP
98
F0
ENDCHAR
STARTCHAR 02D9
ENCODING 729
SWIDTH 257 0
DWIDTH 5 0
BBX 2 3 -1 0
BITMAP
C0
C0
C0
ENDCHAR
STARTCHAR 02DA
ENCODING 730
SWIDTH 205 0
DWIDTH 4 0
BBX 4 4 0 11
BITMAP
E0
90
90
E0
ENDCHAR
STARTCHAR 02DB
ENCODING 731
SWIDTH 257 0
DWIDTH 5 0
BBX 4 4 0 -4
BITMAP
60
C0
F0
F0
ENDCHAR
STARTCHAR 02DC
ENCODING 732
SWIDTH 411 0
DWIDTH 8 0
BBX 6 3 1 12
BITMAP
64
FC
C8
ENDCHAR
STARTCHAR 02DD
ENCODING 733
SWIDTH 360 0
DWIDTH 7 0
BBX 7 4 1 11
BITMAP
6E
6C
4C
D8
ENDCHAR
STARTCHAR 0300
ENCODING 768
SWIDTH 102 0
DWIDTH 2 0
BBX 3 4 0 11
BITMAP
C0
E0
60
20
ENDCHAR
STARTCHAR 0301
ENCODING 769
SWIDTH 102 0
DWIDTH 2 0
BBX 4 4 0 11
BITMAP
70
60
C0
C0
ENDCHAR
STARTCHAR 0302
ENCODING 770
SWIDTH 360 0
DWIDTH 7 0
BBX 5 3 1 12
BITMAP
70
58
D8
ENDCHAR
STARTCHAR 0303
ENCODING 771
SWIDTH 411 0
DWIDTH 8 0
BBX 6 3 1 12
BITMAP
64
FC
C8
ENDCHAR
STARTCHAR 0304
ENCODING 772
SWIDTH 257 0
DWIDTH 5 0
BBX 5 2 0 13
BITMAP
F8
F8
ENDCHAR
STARTCHAR 0306
ENCODING 774
SWIDTH 308 0
DWIDTH 6 0
BBX 6 3 0 12
BITMAP
C4
4C
78
ENDCHAR
STARTCHAR 0307
ENCODING 775
SWIDTH 102 0
DWIDTH 2 0
BBX 2 3 0 12
BITMAP
C0
C0
C0
ENDCHAR
STARTCHAR 0308
ENCODING 776
SWIDTH 411 0
DWIDTH 8 0
BBX 6 2 1 12
BITMAP
CC
CC
ENDCHAR
STARTCHAR 030A
ENCODING 778
SWIDTH 205 0
DWIDTH 4 0
BBX 4 4 0 11
BITMAP
E0
90
90
E0
ENDCHAR
STARTCHAR 030C
ENCODING 780
SWIDTH 154 0
DWIDTH 3 0
BBX 6 3 -1 12
BITMAP
CC
78
70
ENDCHAR
STARTCHAR 030F
ENCODING 783
SWIDTH 360 0
DWIDTH 7 0
BBX 7 4 0 11
BITMAP
EC
6C
24
36
ENDCHAR
STARTCHAR 0311
ENCODING 785
SWIDTH 308 0
DWIDTH 6 0
BBX 5 3 1 12
BITMAP
F0
98
98
ENDCHAR
STARTCHAR 0326
ENCODING 806
SWIDTH 154 0
DWIDTH 3 0
BBX 3 4 0 -4
BITMAP
E0
E0
20
C0
ENDCHAR
STARTCHAR 03A0
ENCODING 928
SWIDTH 565 0
DWIDTH 11 0
BBX 9 15 1 0
BITMAP
FF80
FF80
E380
E380
E380
E380
E380
E380
E380
E380
E380
E380
E380
E380
E380
ENDCHAR
STARTCHAR 03C0
ENCODING 960
SWIDTH 565 0
DWIDTH 11 0
BBX 10 11 0 0
BITMAP
FFC0
FFC0
3380
3380
3380
3380
3380
3380
3380
33C0
31C0
ENDCHAR
STARTCHAR 0400
ENCODING 1024
SWIDTH 411 0
DWIDTH 8 0
BBX 7 20 1 0
BITMAP
60
70
30
10
00
FE
FE
E0
E0
E0
E0
FC
FC
E0
E0
E0
E0
E0
FE
FE
ENDCHAR
STARTCHAR 0401
ENCODING 1025
SWIDTH 411 0
DWIDTH 8 0
BBX 7 19 1 0
BITMAP
CC
CC
00
00
FE
FE
E0
E0
E0
E0
FC
FC
E0
E0
E0
E0
E0
FE
FE
ENDCHAR
STARTCHAR 0402
ENCODING 1026
SWIDTH 565 0
DWIDTH 11 0
BBX 10 15 0 0
BITMAP
FF00
FF00
3800
3800
3800
3800
3F80
3FC0
38C0
38C0
38C0
38C0
38C0
3BC0
3B80
ENDCHAR
STARTCHAR 0403
ENCODING 1027
SWIDTH 411 0
DWIDTH 8 0
BBX 7 20 1 0
BITMAP
0E
0C
18
18
00
FE
FE
E0
E0
E0
E0
E0
E0
E0
E0
E0
E0
E0
E0
E0
ENDCHAR
STARTCHAR 0404
ENCODING 1028
SWIDTH 514 0
DWIDTH 10 0
BBX 8 15 1 0
BITMAP
3E
7F
E3
E3
E3
E0
FC
FC
E0
E0
E3
E3
E3
7F
3E
ENDCHAR
STARTCHAR 0405
ENCODING 1029
SWIDTH 462 0
DWIDTH 9 0
BBX 8 15 1 0
BITMAP
7C
FE
E6
C7
E0
F0
78
3C
1E
0F
47
C7
E7
7E
3C
ENDCHAR
STARTCHAR 0406
ENCODING 1030
SWIDTH 257 0
DWIDTH 5 0
BBX 3 15 1 0
BITMAP
E0
E0
E0
E0
E0
E0
E0
E0
E0
E0
E0
E0
E0
E0
E0
ENDCHAR
STARTCHAR 0407
ENCODING 1031
SWIDTH 257 0
DWIDTH 5 0
BBX 6 19 0 0
BITMAP
CC
CC
00
00
70
70
70
70
70
70
70
70
70
70
70
70
70
70
70
ENDCHAR
STARTCHAR 0408
ENCODING 1032
SWIDTH 308 0
DWIDTH 6 0
BBX 5 15 0 0
BITMAP
38
38
38
38
38
38
38
38
38
38
38
38
38
F8
F0
ENDCHAR
STARTCHAR 0409
ENCODING 1033
SWIDTH 822 0
DWIDTH 16 0
BBX 16 15 0 0
BITMAP
1FE0
1FE0
1CE0
1CE0
18E0
18E0
18F8
18FE
18E7
18E7
38E7
38E7
38E7
F0FE
E0FC
ENDCHAR
STARTCHAR 040A
ENCODING 1034
SWIDTH 771 0
DWIDTH 15 0
BBX 14 15 1 0
BITMAP
E380
E380
E380
E380
E380
E380
FFE0
FFF8
E398
E39C
E39C
E39C
E39C
E3F8
E3F0
ENDCHAR
STARTCHAR 040B
ENCODING 1035
SWIDTH 514 0
DWIDTH 10 0
BBX 9 15 0 0
BITMAP
FE00
FE00
3800
3800
3800
3800
3F80
3F80
3980
3980
3980
3980
3980
3980
3980
ENDCHAR
STARTCHAR 040C
ENCODING 1036
SWIDTH 514 0
DWIDTH 10 0
BBX 9 20 1 0
BITMAP
0700
0600
0C00
0C00
0000
E380
E700
E700
E600
EE00
EE00
FC00
FC00
EC00
EE00
EE00
E700
E700
E300
E380
ENDCHAR
STARTCHAR 040D
ENCODING 1037
SWIDTH 565 0
DWIDTH 11 0
BBX 9 20 1 0
BITMAP
3000
3800
1800
0800
0000
E380
E380
E380
E780
E780
EF80
EF80
FB80
FB80
F380
F380
F380
E380
E380
C380
ENDCHAR
STARTCHAR 040E
ENCODING 1038
SWIDTH 462 0
DWIDTH 9 0
BBX 9 22 0 -3
BITMAP
3100
1300
1E00
0000
E380
6380
6380
7300
7300
3300
3700
3700
3E00
1E00
1E00
1E00
1E00
1C00
0C00
1C00
7C00
7800
ENDCHAR
STARTCHAR 040F
ENCODING 1039
SWIDTH 565 0
DWIDTH 11 0
BBX 9 18 1 -3
BITMAP
E380
E380
E380
E380
E380
E380
E380
E380
E380
E380
E380
E380
E380
FF80
FF80
1C00
1C00
1C00
ENDCHAR
STARTCHAR 0410
ENCODING 1040
SWIDTH 514 0
DWIDTH 10 0
BBX 10 15 0 0
BITMAP
1E00
1E00
1E00
1E00
1E00
3F00
3700
3300
3300
3300
7F80
7F80
6380
6180
E1C0
ENDCHAR
STARTCHAR 0411
ENCODING 1041
SWIDTH 514 0
DWIDTH 10 0
BBX 8 15 1 0
BITMAP
FE
FE
E0
E0
E0
E0
FC
FE
E7
E3
E3
E3
E7
FF
FC
ENDCHAR
STARTCHAR 0412
ENCODING 1042
SWIDTH 565 0
DWIDTH 11 0
BBX 9 15 1 0
BITMAP
FE00
FF00
E300
E300
E300
E300
FE00
FF00
E380
E380
E380
E380
E380
FF00
FE00
ENDCHAR
STARTCHAR 0413
ENCODING 1043
SWIDTH 411 0
DWIDTH 8 0
BBX 7 15 1 0
BITMAP
FE
FE
E0
E0
E0
E0
E0
E0
E0
E0
E0
E0
E0
E0
E0
ENDCHAR
STARTCHAR 0414
ENCODING 1044
SWIDTH 668 0
DWIDTH 13 0
BBX 12 18 0 -3
BITMAP
0FE0
0FE0
0CE0
0CE0
1CE0
1CE0
1CE0
1CE0
1CE0
18E0
18E0
38E0
30E0
FFF0
FFF0
C030
C030
C030
ENDCHAR
STARTCHAR 0415
ENCODING 1045
SWIDTH 411 0
DWIDTH 8 0
BBX 7 15 1 0
BITMAP
FE
FE
E0
E0
E0
E0
FC
FC
E0
E0
E0
E0
E0
FE
FE
ENDCHAR
STARTCHAR 0416
ENCODING 1046
SWIDTH 720 0
DWIDTH 14 0
BBX 14 15 0 0
BITMAP
E31C
7338
7338
3330
3B70
1B60
1BE0
1FE0
1BE0
1B60
3B70
3330
7338
6318
E31C
ENDCHAR
STARTCHAR 0417
ENCODING 1047
SWIDTH 514 0
DWIDTH 10 0
BBX 9 15 0 0
BITMAP
3E00
7F00
6380
E380
0380
0300
1E00
1F00
0300
0380
6380
6380
7300
7F00
1E00
ENDCHAR
STARTCHAR 0418
ENCODING 1048
SWIDTH 565 0
DWIDTH 11 0
BBX 9 15 1 0
BITMAP
E380
E380
E380
E780
E780
EF80
EF80
FB80
FB80
F380
F380
F380
E380
E380
C380
ENDCHAR
STARTCHAR 0419
ENCODING 1049
SWIDTH 565 0
DWIDTH 11 0
BBX 9 19 1 0
BITMAP
6200
2600
3C00
0000
E380
E380
E380
E780
E780
EF80
EF80
FB80
FB80
F380
F380
F380
E380
E380
C380
ENDCHAR
STARTCHAR 041A
ENCODING 1050
SWIDTH 514 0
DWIDTH 10 0
BBX 9 15 1 0
BITMAP
E380
E700
E700
E600
EE00
EE00
FC00
FC00
EC00
EE00
EE00
E700
E700
E300
E380
ENDCHAR
STARTCHAR 041B
ENCODING 1051
SWIDTH 617 0
DWIDTH 12 0
BBX 11 15 0 0
BITMAP
1FE0
1FE0
18E0
18E0
18E0
18E0
18E0
18E0
38E0
38E0
38E0
38E0
30E0
F0E0
E0E0
ENDCHAR
STARTCHAR 041C
ENCODING 1052
SWIDTH 668 0
DWIDTH 13 0
BBX 11 15 1 0
BITMAP
E0E0
E0E0
F1E0
F1E0
F1E0
F1E0
DB60
DB60
DB60
DB60
CE60
CE60
CE60
CE60
C460
ENDCHAR
STARTCHAR 041D
ENCODING 1053
SWIDTH 565 0
DWIDTH 11 0
BBX 9 15 1 0
BITMAP
E380
E380
E380
E380
E380
E380
FF80
FF80
E380
E380
E380
E380
E380
E380
E380
ENDCHAR
STARTCHAR 041E
ENCODING 1054
SWIDTH 565 0
DWIDTH 11 0
BBX 9 15 1 0
BITMAP
3E00
7F00
E300
E380
E380
E380
E380
E380
E380
E380
E380
E380
E300
7F00
3E00
ENDCHAR
STARTCHAR 041F
ENCODING 1055
SWIDTH 565 0
DWIDTH 11 0
BBX 9 15 1 0
BITMAP
FF80
FF80
E380
E380
E380
E380
E380
E380
E380
E380
E380
E380
E380
E380
E380
ENDCHAR
STARTCHAR 0420
ENCODING 1056
SWIDTH 514 0
DWIDTH 10 0
BBX 9 15 1 0
BITMAP
FE00
FF00
E300
E300
E380
E300
FF00
FE00
E000
E000
E000
E000
E000
E000
E000
ENDCHAR
STARTCHAR 0421
ENCODING 1057
SWIDTH 514 0
DWIDTH 10 0
BBX 8 15 1 0
BITMAP
3E
7F
E3
E3
E3
E0
E0
E0
E0
E3
E3
E3
E3
7F
3E
ENDCHAR
STARTCHAR 0422
ENCODING 1058
SWIDTH 411 0
DWIDTH 8 0
BBX 8 15 0 0
BITMAP
FF
FF
18
18
18
18
18
18
18
18
18
18
18
18
18
ENDCHAR
STARTCHAR 0423
ENCODING 1059
SWIDTH 462 0
DWIDTH 9 0
BBX 9 18 0 -3
BITMAP
E380
6380
6380
7300
7300
3300
3700
3700
3E00
1E00
1E00
1E00
1E00
1C00
0C00
1C00
7C00
7800
ENDCHAR
STARTCHAR 0424
ENCODING 1060
SWIDTH 720 0
DWIDTH 14 0
BBX 12 17 1 -1
BITMAP
0E00
0E00
0E00
3FC0
7FE0
EE60
CE70
CE70
CE70
CE70
CE70
CE70
EE60
7FE0
3FC0
0E00
0E00
ENDCHAR
STARTCHAR 0425
ENCODING 1061
SWIDTH 462 0
DWIDTH 9 0
BBX 9 15 0 0
BITMAP
E380
7300
7300
3700
3E00
1E00
1E00
1C00
1E00
3E00
3600
3700
7300
6380
E380
ENDCHAR
STARTCHAR 0426
ENCODING 1062
SWIDTH 617 0
DWIDTH 12 0
BBX 11 18 1 -3
BITMAP
E380
E380
E380
E380
E380
E380
E380
E380
E380
E380
E380
E380
E380
FFE0
FFE0
0060
0060
0060
ENDCHAR
STARTCHAR 0427
ENCODING 1063
SWIDTH 565 0
DWIDTH 11 0
BBX 9 15 1 0
BITMAP
E380
E380
E380
E380
E380
E380
E380
7F80
3F80
0380
0380
0380
0380
0380
0380
ENDCHAR
STARTCHAR 0428
ENCODING 1064
SWIDTH 771 0
DWIDTH 15 0
BBX 13 15 1 0
BITMAP
E738
E738
E738
E738
E738
E738
E738
E738
E738
E738
E738
E738
E738
FFF8
FFF8
ENDCHAR
STARTCHAR 0429
ENCODING 1065
SWIDTH 822 0
DWIDTH 16 0
BBX 15 18 1 -3
BITMAP
E738
E738
E738
E738
E738
E738
E738
E738
E738
E738
E738
E738
E738
FFFE
FFFE
000E
000E
000E
ENDCHAR
STARTCHAR 042A
ENCODING 1066
SWIDTH 565 0
DWIDTH 11 0
BBX 11 15 0 0
BITMAP
F800
F800
1800
1800
1800
1800
1F00
1FC0
18C0
18E0
18E0
18E0
18E0
1FC0
1F80
ENDCHAR
STARTCHAR 042B
ENCODING 1067
SWIDTH 771 0
DWIDTH 15 0
BBX 13 15 1 0
BITMAP
E038
E038
E038
E038
E038
E038
FC38
FF38
E738
E338
E338
E338
E738
FF38
FC38
ENDCHAR
STARTCHAR 042C
ENCODING 1068
SWIDTH 514 0
DWIDTH 10 0
BBX 8 15 1 0
BITMAP
E0
E0
E0
E0
E0
E0
FC
FF
E7
E3
E3
E3
E7
FF
FC
ENDCHAR
STARTCHAR 042D
ENCODING 1069
SWIDTH 514 0
DWIDTH 10 0
BBX 8 15 1 0
BITMAP
3C
7F
E7
E3
E3
03
1F
1F
03
03
E3
E3
E7
7F
3E
ENDCHAR
STARTCHAR 042E
ENCODING 1070
SWIDTH 771 0
DWIDTH 15 0
BBX 13 15 1 0
BITMAP
E3E0
E7F0
E630
E638
E638
E638
FE38
FE38
E638
E638
E638
E638
E630
E7F0
E3E0
ENDCHAR
STARTCHAR 042F
ENCODING 1071
SWIDTH 565 0
DWIDTH 11 0
BBX 10 15 0 0
BITMAP
1FC0
3FC0
71C0
71C0
71C0
71C0
39C0
3FC0
1FC0
19C0
39C0
39C0
71C0
71C0
E1C0
ENDCHAR
STARTCHAR 0430
ENCODING 1072
SWIDTH 462 0
DWIDTH 9 0
BBX 7 11 1 0
BITMAP
78
FC
CE
CE
1E
7E
EE
CE
CE
FE
7E
ENDCHAR
STARTCHAR 0431
ENCODING 1073
SWIDTH 462 0
DWIDTH 9 0
BBX 7 17 1 0
BITMAP
04
1C
7C
E0
C0
C0
D8
FC
EE
CE
CE
CE
CE
CE
EE
FC
78
ENDCHAR
STARTCHAR 0432
ENCODING 1074
SWIDTH 462 0
DWIDTH 9 0
BBX 7 11 1 0
BITMAP
FC
FE
EE
EE
FC
FC
EE
E6
EE
FE
FC
ENDCHAR
STARTCHAR 0433
ENCODING 1075
SWIDTH 308 0
DWIDTH 6 0
BBX 5 11 1 0
BITMAP
F8
F8
E0
E0
E0
E0
E0
E0
E0
E0
E0
ENDCHAR
STARTCHAR 0434
ENCODING 1076
SWIDTH 514 0
DWIDTH 10 0
BBX 10 14 0 -3
BITMAP
1F80
1F80
1B80
1B80
1B80
1B80
3B80
3380
7380
FFC0
FFC0
C0C0
C0C0
C0C0
ENDCHAR
STARTCHAR 0435
ENCODING 1077
SWIDTH 411 0
DWIDTH 8 0
BBX 7 11 1 0
BITMAP
78
FC
CE
CE
FE
FE
C0
CE
CE
FC
78
ENDCHAR
STARTCHAR 0436
ENCODING 1078
SWIDTH 617 0
DWIDTH 12 0
BBX 12 11 0 0
BITMAP
E670
6660
76C0
36C0
37C0
1F80
37C0
36C0
66E0
6660
E670
ENDCHAR
STARTCHAR 0437
ENCODING 1079
SWIDTH 411 0
DWIDTH 8 0
BBX 6 11 1 0
BITMAP
78
FC
CC
0C
3C
38
0C
CC
CC
FC
78
ENDCHAR
STARTCHAR 0438
ENCODING 1080
SWIDTH 462 0
DWIDTH 9 0
BBX 7 11 1 0
BITMAP
C6
CE
CE
CE
DE
DE
F6
F6
E6
E6
C6
ENDCHAR
STARTCHAR 0439
ENCODING 1081
SWIDTH 462 0
DWIDTH 9 0
BBX 7 15 1 0
BITMAP
C4
4C
78
00
C6
CE
CE
CE
DE
DE
F6
F6
E6
E6
C6
ENDCHAR
STARTCHAR 043A
ENCODING 1082
SWIDTH 462 0
DWIDTH 9 0
BBX 8 11 1 0
BITMAP
E7
EE
EE
FC
FC
FC
FC
EC
EE
EE
E7
ENDCHAR
STARTCHAR 043B
ENCODING 1083
SWIDTH 514 0
DWIDTH 10 0
BBX 9 11 0 -1
BITMAP
1F80
3F80
3B80
3B80
3B80
3B80
3B80
3380
3380
F380
E380
ENDCHAR
STARTCHAR 043C
ENCODING 1084
SWIDTH 565 0
DWIDTH 11 0
BBX 9 11 1 0
BITMAP
C380
E380
E380
E780
F780
FD80
DD80
DD80
D980
C980
C180
ENDCHAR
STARTCHAR 043D
ENCODING 1085
SWIDTH 462 0
DWIDTH 9 0
BBX 7 11 1 0
BITMAP
E6
E6
E6
E6
FE
FE
E6
E6
E6
E6
E6
ENDCHAR
STARTCHAR 043E
ENCODING 1086
SWIDTH 462 0
DWIDTH 9 0
BBX 7 11 1 0
BITMAP
78
FC
CE
CE
CE
CE
CE
CE
CE
FC
78
ENDCHAR
STARTCHAR 043F
ENCODING 1087
SWIDTH 462 0
DWIDTH 9 0
BBX 7 11 1 0
BITMAP
FE
FE
EE
EE
EE
EE
EE
EE
EE
EE
EE
ENDCHAR
STARTCHAR 0440
ENCODING 1088
SWIDTH 462 0
DWIDTH 9 0
BBX 7 14 1 -3
BITMAP
FC
FE
E6
E6
E6
E6
E6
E6
E6
FE
FC
E0
E0
E0
ENDCHAR
STARTCHAR 0441
ENCODING 1089
SWIDTH 411 0
DWIDTH 8 0
BBX 7 11 1 0
BITMAP
78
FC
CE
CE
C0
C0
C0
CE
CE
FC
78
ENDCHAR
STARTCHAR 0442
ENCODING 1090
SWIDTH 360 0
DWIDTH 7 0
BBX 7 11 0 0
BITMAP
FE
FE
38
38
38
38
38
38
38
38
38
ENDCHAR
STARTCHAR 0443
ENCODING 1091
SWIDTH 411 0
DWIDTH 8 0
BBX 8 14 0 -3
BITMAP
E7
67
66
66
66
36
3C
3C
3C
1C
18
18
78
70
ENDCHAR
STARTCHAR 0444
ENCODING 1092
SWIDTH 617 0
DWIDTH 12 0
BBX 11 18 1 -3
BITMAP
0C00
0C00
0C00
0C00
3F80
7FC0
CCC0
CCE0
CCE0
CCE0
CCE0
CCE0
ECC0
7FC0
3F80
0C00
0C00
0C00
ENDCHAR
STARTCHAR 0445
ENCODING 1093
SWIDTH 411 0
DWIDTH 8 0
BBX 8 11 0 0
BITMAP
E7
66
7E
3C
3C
38
3C
3C
6E
66
E7
ENDCHAR
STARTCHAR 0446
ENCODING 1094
SWIDTH 514 0
DWIDTH 10 0
BBX 9 14 1 -3
BITMAP
E600
E600
E600
E600
E600
E600
E600
E600
E600
FF80
FF80
0180
0180
0180
ENDCHAR
STARTCHAR 0447
ENCODING 1095
SWIDTH 462 0
DWIDTH 9 0
BBX 7 11 1 0
BITMAP
CE
CE
CE
CE
CE
FE
3E
0E
0E
0E
0E
ENDCHAR
STARTCHAR 0448
ENCODING 1096
SWIDTH 668 0
DWIDTH 13 0
BBX 11 11 1 0
BITMAP
CEE0
CEE0
CEE0
CEE0
CEE0
CEE0
CEE0
CEE0
CEE0
FFE0
FFE0
ENDCHAR
STARTCHAR 0449
ENCODING 1097
SWIDTH 720 0
DWIDTH 14 0
BBX 12 14 1 -3
BITMAP
CEE0
CEE0
CEE0
CEE0
CEE0
CEE0
CEE0
CEE0
CEE0
FFF0
FFF0
0030
0030
0030
ENDCHAR
STARTCHAR 044A
ENCODING 1098
SWIDTH 514 0
DWIDTH 10 0
BBX 9 11 0 0
BITMAP
F800
F800
3800
3800
3F00
3F80
3980
3980
3980
3F80
3F00
ENDCHAR
STARTCHAR 044B
ENCODING 1099
SWIDTH 668 0
DWIDTH 13 0
BBX 11 11 1 0
BITMAP
E0E0
E0E0
E0E0
E0E0
F8E0
FEE0
E6E0
E6E0
E6E0
FEE0
FCE0
ENDCHAR
STARTCHAR 044C
ENCODING 1100
SWIDTH 462 0
DWIDTH 9 0
BBX 7 11 1 0
BITMAP
E0
E0
E0
E0
F8
FE
E6
E6
E6
FE
FC
ENDCHAR
STARTCHAR 044D
ENCODING 1101
SWIDTH 411 0
DWIDTH 8 0
BBX 7 11 1 0
BITMAP
78
FC
CC
0E
7E
7E
0E
CE
CC
FC
78
ENDCHAR
STARTCHAR 044E
ENCODING 1102
SWIDTH 617 0
DWIDTH 12 0
BBX 10 11 1 0
BITMAP
C780
CFC0
CCC0
CCC0
FCC0
FCC0
CCC0
CCC0
CCC0
CFC0
C780
ENDCHAR
STARTCHAR 044F
ENCODING 1103
SWIDTH 462 0
DWIDTH 9 0
BBX 8 11 0 0
BITMAP
3F
7F
67
67
67
7F
3F
37
77
77
E7
ENDCHAR
STARTCHAR 0450
ENCODING 1104
SWIDTH 411 0
DWIDTH 8 0
BBX 7 16 1 0
BITMAP
60
70
30
10
00
78
FC
CE
CE
FE
FE
C0
CE
CE
FC
78
ENDCHAR
STARTCHAR 0451
ENCODING 1105
SWIDTH 411 0
DWIDTH 8 0
BBX 7 14 1 0
BITMAP
CC
CC
00
78
FC
CE
CE
FE
FE
C0
CE
CE
FC
78
ENDCHAR
STARTCHAR 0452
ENCODING 1106
SWIDTH 462 0
DWIDTH 9 0
BBX 8 18 0 -3
BITMAP
70
70
FC
FC
70
70
7F
7F
73
73
73
73
73
73
73
03
0F
0E
ENDCHAR
STARTCHAR 0453
ENCODING 1107
SWIDTH 308 0
DWIDTH 6 0
BBX 6 16 1 0
BITMAP
1C
18
30
30
00
F8
F8
E0
E0
E0
E0
E0
E0
E0
E0
E0
ENDCHAR
STARTCHAR 0454
ENCODING 1108
SWIDTH 411 0
DWIDTH 8 0
BBX 7 11 1 0
BITMAP
7C
FC
CE
C0
F8
F8
C0
CE
CE
FC
78
ENDCHAR
STARTCHAR 0455
ENCODING 1109
SWIDTH 411 0
DWIDTH 8 0
BBX 7 11 0 0
BITMAP
3C
7C
66
60
78
3C
1E
2E
E6
7E
3C
ENDCHAR
STARTCHAR 0456
ENCODING 1110
SWIDTH 257 0
DWIDTH 5 0
BBX 3 15 1 0
BITMAP
E0
E0
00
00
E0
E0
E0
E0
E0
E0
E0
E0
E0
E0
E0
ENDCHAR
STARTCHAR 0457
ENCODING 1111
SWIDTH 257 0
DWIDTH 5 0
BBX 6 14 0 0
BITMAP
CC
CC
00
70
70
70
70
70
70
70
70
70
70
70
ENDCHAR
STARTCHAR 0458
ENCODING 1112
SWIDTH 257 0
DWIDTH 5 0
BBX 4 18 0 -3
BITMAP
70
70
00
00
70
70
70
70
70
70
70
70
70
70
70
70
F0
E0
ENDCHAR
STARTCHAR 0459
ENCODING 1113
SWIDTH 720 0
DWIDTH 14 0
BBX 13 11 0 -1
BITMAP
1F80
1F80
3B80
3B80
3BF0
3BF8
3B98
3398
3398
F3F8
E3F0
ENDCHAR
STARTCHAR 045A
ENCODING 1114
SWIDTH 668 0
DWIDTH 13 0
BBX 11 11 1 0
BITMAP
EE00
EE00
EE00
EE00
EE00
FFC0
FFE0
EE60
EE60
EEE0
EFC0
ENDCHAR
STARTCHAR 045B
ENCODING 1115
SWIDTH 462 0
DWIDTH 9 0
BBX 8 15 0 0
BITMAP
70
70
FC
FC
70
70
7F
7F
73
73
73
73
73
73
73
ENDCHAR
STARTCHAR 045C
ENCODING 1116
SWIDTH 462 0
DWIDTH 9 0
BBX 8 16 1 0
BITMAP
0E
0C
18
18
00
E7
EE
EE
FC
FC
FC
FC
EC
EE
EE
E7
ENDCHAR
STARTCHAR 045D
ENCODING 1117
SWIDTH 462 0
DWIDTH 9 0
BBX 7 16 1 0
BITMAP
60
70
30
10
00
C6
CE
CE
CE
DE
DE
F6
F6
E6
E6
C6
ENDCHAR
STARTCHAR 045E
ENCODING 1118
SWIDTH 411 0
DWIDTH 8 0
BBX 8 18 0 -3
BITMAP
62
26
3C
00
E7
67
66
66
66
36
3C
3C
3C
1C
18
18
78
70
ENDCHAR
STARTCHAR 045F
ENCODING 1119
SWIDTH 462 0
DWIDTH 9 0
BBX 7 14 1 -3
BITMAP
E6
E6
E6
E6
E6
E6
E6
E6
E6
FE
FE
18
18
18
ENDCHAR
STARTCHAR 0490
ENCODING 1168
SWIDTH 411 0
DWIDTH 8 0
BBX 7 18 1 0
BITMAP
06
06
06
FE
FE
E0
E0
E0
E0
E0
E0
E0
E0
E0
E0
E0
E0
E0
ENDCHAR
STARTCHAR 0491
ENCODING 1169
SWIDTH 308 0
DWIDTH 6 0
BBX 5 13 1 0
BITMAP
08
08
F8
F8
E0
E0
E0
E0
E0
E0
E0
E0
E0
ENDCHAR
STARTCHAR 04AE
ENCODING 1198
SWIDTH 462 0
DWIDTH 9 0
BBX 9 15 0 0
BITMAP
E380
6380
7300
7700
3700
3E00
3E00
1E00
1C00
1C00
1C00
1C00
1C00
1C00
1C00
ENDCHAR
STARTCHAR 04AF
ENCODING 1199
SWIDTH 411 0
DWIDTH 8 0
BBX 8 14 0 -3
BITMAP
E7
66
66
66
7E
3C
3C
3C
18
18
18
18
18
18
ENDCHAR
STARTCHAR 04B0
ENCODING 1200
SWIDTH 462 0
DWIDTH 9 0
BBX 9 15 0 0
BITMAP
E380
6380
7300
7700
3700
3E00
1E00
1C00
7F80
7F80
1C00
1C00
1C00
1C00
1C00
ENDCHAR
STARTCHAR 04B1
ENCODING 1201
SWIDTH 411 0
DWIDTH 8 0
BBX 8 14 0 -3
BITMAP
E7
66
66
66
7E
3C
3C
3C
38
7E
7E
18
18
18
ENDCHAR
STARTCHAR 04C0
ENCODING 1216
SWIDTH 257 0
DWIDTH 5 0
BBX 3 15 1 0
BITMAP
E0
E0
E0
E0
E0
E0
E0
E0
E0
E0
E0
E0
E0
E0
E0
ENDCHAR
STARTCHAR 04E8
ENCODING 1256
SWIDTH 565 0
DWIDTH 11 0
BBX 9 15 1 0
BITMAP
3E00
7F00
E300
E380
E380
E380
FF80
FF80
E380
E380
E380
E380
E300
7F00
3E00
ENDCHAR
STARTCHAR 04E9
ENCODING 1257
SWIDTH 462 0
DWIDTH 9 0
BBX 7 11 1 0
BITMAP
78
FC
CE
CE
FE
FE
CE
CE
CE
FC
78
ENDCHAR
STARTCHAR 1E02
ENCODING 7682
SWIDTH 565 0
DWIDTH 11 0
BBX 9 19 1 0
BITMAP
0C00
0C00
0C00
0000
FE00
FF00
E300
E300
E300
E300
FE00
FF00
E380
E380
E380
E380
E380
FF00
FE00
ENDCHAR
STARTCHAR 1E03
ENCODING 7683
SWIDTH 462 0
DWIDTH 9 0
BBX 7 19 1 0
BITMAP
18
18
18
00
E0
E0
E0
E0
FC
FE
E6
E6
E6
E6
E6
E6
E6
FE
FC
ENDCHAR
STARTCHAR 1E0A
ENCODING 7690
SWIDTH 565 0
DWIDTH 11 0
BBX 9 19 1 0
BITMAP
1800
1800
1800
0000
FE00
FF00
E300
E380
E380
E380
E380
E380
E380
E380
E380
E380
E700
FF00
FE00
ENDCHAR
STARTCHAR 1E0B
ENCODING 7691
SWIDTH 462 0
DWIDTH 9 0
BBX 7 19 1 0
BITMAP
30
30
30
00
0E
0E
0E
0E
7E
FE
EE
CE
CE
CE
CE
CE
EE
FE
7E
ENDCHAR
STARTCHAR 1E1E
ENCODING 7710
SWIDTH 411 0
DWIDTH 8 0
BBX 6 19 1 0
BITMAP
30
30
30
00
FC
FC
E0
E0
E0
E0
FC
FC
E0
E0
E0
E0
E0
E0
E0
ENDCHAR
STARTCHAR 1E1F
ENCODING 7711
SWIDTH 308 0
DWIDTH 6 0
BBX 6 18 0 0
BITMAP
30
30
30
3C
3C
30
30
FC
FC
30
30
30
30
30
30
30
30
30
ENDCHAR
STARTCHAR 1E40
ENCODING 7744
SWIDTH 668 0
DWIDTH 13 0
BBX 11 19 1 0
BITMAP
0600
0600
0600
0000
E0E0
F1E0
F1E0
F1E0
F1E0
D160
DB60
DB60
DB60
DA60
CE60
CE60
CE60
CE60
C460
ENDCHAR
STARTCHAR 1E41
ENCODING 7745
SWIDTH 720 0
DWIDTH 14 0
BBX 12 15 1 0
BITMAP
0600
0600
0600
0000
DCE0
FFF0
C670
C670
C670
C670
C670
C670
C670
C670
C670
ENDCHAR
STARTCHAR 1E56
ENCODING 7766
SWIDTH 514 0
DWIDTH 10 0
BBX 9 19 1 0
BITMAP
1800
1800
1800
0000
FE00
FF00
E300
E300
E380
E300
FF00
FE00
E000
E000
E000
E000
E000
E000
E000
ENDCHAR
STARTCHAR 1E57
ENCODING 7767
SWIDTH 462 0
DWIDTH 9 0
BBX 7 17 1 -3
BITMAP
18
18
18
FC
FE
E6
E6
E6
E6
E6
E6
E6
FE
FC
E0
E0
E0
ENDCHAR
STARTCHAR 1E60
ENCODING 7776
SWIDTH 462 0
DWIDTH 9 0
BBX 8 19 1 0
BITMAP
18
18
18
00
7C
FE
E6
C7
E0
F0
78
3C
1E
0F
47
C7
E7
7E
3C
ENDCHAR
STARTCHAR 1E61
ENCODING 7777
SWIDTH 411 0
DWIDTH 8 0
BBX 7 14 0 0
BITMAP
18
18
18
3C
7C
66
60
78
3C
1E
2E
E6
7E
3C
ENDCHAR
STARTCHAR 1E6A
ENCODING 7786
SWIDTH 411 0
DWIDTH 8 0
BBX 8 19 0 0
BITMAP
18
18
18
00
FF
FF
18
18
18
18
18
18
18
18
18
18
18
18
18
ENDCHAR
STARTCHAR 1E6B
ENCODING 7787
SWIDTH 308 0
DWIDTH 6 0
BBX 6 18 0 0
BITMAP
30
30
30
00
70
70
70
FC
FC
70
70
70
70
70
70
70
3C
3C
ENDCHAR
STARTCHAR 1E80
ENCODING 7808
SWIDTH 720 0
DWIDTH 14 0
BBX 12 20 1 0
BITMAP
1800
1C00
0C00
0400
0000
C630
C630
CE70
CE70
EF60
EF60
6F60
6B60
7B60
79E0
79C0
79C0
79C0
31C0
31C0
ENDCHAR
STARTCHAR 1E81
ENCODING 7809
SWIDTH 565 0
DWIDTH 11 0
BBX 11 16 0 0
BITMAP
1800
1C00
0C00
0400
0000
E660
6E60
6EC0
6EC0
6EC0
6AC0
6BC0
3BC0
3B80
3980
3180
ENDCHAR
STARTCHAR 1E82
ENCODING 7810
SWIDTH 720 0
DWIDTH 14 0
BBX 12 20 1 0
BITMAP
0380
0300
0600
0600
0000
C630
C630
CE70
CE70
EF60
EF60
6F60
6B60
7B60
79E0
79C0
79C0
79C0
31C0
31C0
ENDCHAR
STARTCHAR 1E83
ENCODING 7811
SWIDTH 565 0
DWIDTH 11 0
BBX 11 16 0 0
BITMAP
0380
0300
0600
0600
0000
E660
6E60
6EC0
6EC0
6EC0
6AC0
6BC0
3BC0
3B80
3980
3180
ENDCHAR
STARTCHAR 1E84
ENCODING 7812
SWIDTH 720 0
DWIDTH 14 0
BBX 12 19 1 0
BITMAP
1980
1980
0000
0000
C630
C630
CE70
CE70
EF60
EF60
6F60
6B60
7B60
79E0
79C0
79C0
79C0
31C0
31C0
ENDCHAR
STARTCHAR 1E85
ENCODING 7813
SWIDTH 565 0
DWIDTH 11 0
BBX 11 14 0 0
BITMAP
1980
1980
0000
E660
6E60
6EC0
6EC0
6EC0
6AC0
6BC0
3BC0
3B80
3980
3180
ENDCHAR
STARTCHAR 1EF2
ENCODING 7922
SWIDTH 462 0
DWIDTH 9 0
BBX 9 20 0 0
BITMAP
3000
3800
1800
0800
0000
E380
6380
7300
7700
3700
3E00
3E00
1E00
1C00
1C00
1C00
1C00
1C00
1C00
1C00
ENDCHAR
STARTCHAR 1EF3
ENCODING 7923
SWIDTH 411 0
DWIDTH 8 0
BBX 8 19 0 -3
BITMAP
60
70
30
10
00
E7
E6
66
66
7E
3E
3C
3C
3C
1C
18
18
78
70
ENDCHAR
STARTCHAR 2013
ENCODING 8211
SWIDTH 514 0
DWIDTH 10 0
BBX 9 2 0 5
BITMAP
FF80
FF80
ENDCHAR
STARTCHAR 2014
ENCODING 8212
SWIDTH 977 0
DWIDTH 19 0
BBX 19 2 0 6
BITMAP
FFFFE0
FFFFE0
ENDCHAR
STARTCHAR 2015
ENCODING 8213
SWIDTH 1954 0
DWIDTH 38 0
BBX 36 2 1 5
BITMAP
FFFFFFFFF0
FFFFFFFFF0
ENDCHAR
STARTCHAR 2018
ENCODING 8216
SWIDTH 360 0
DWIDTH 7 0
BBX 3 5 1 10
BITMAP
40
C0
80
E0
E0
ENDCHAR
STARTCHAR 2019
ENCODING 8217
SWIDTH 205 0
DWIDTH 4 0
BBX 3 5 1 10
BITMAP
E0
E0
60
40
C0
ENDCHAR
STARTCHAR 201A
ENCODING 8218
SWIDTH 257 0
DWIDTH 5 0
BBX 2 5 2 -2
BITMAP
C0
C0
40
40
80
ENDCHAR
STARTCHAR 201C
ENCODING 8220
SWIDTH 462 0
DWIDTH 9 0
BBX 7 5 1 10
BITMAP
46
CC
88
EE
EE
ENDCHAR
STARTCHAR 201D
ENCODING 8221
SWIDTH 462 0
DWIDTH 9 0
BBX 6 5 2 10
BITMAP
DC
DC
4C
4C
98
ENDCHAR
STARTCHAR 201E
ENCODING 8222
SWIDTH 462 0
DWIDTH 9 0
BBX 6 5 2 -2
BITMAP
CC
CC
44
44
8C
ENDCHAR
STARTCHAR 2020
ENCODING 8224
SWIDTH 411 0
DWIDTH 8 0
BBX 6 15 1 0
BITMAP
30
30
30
FC
FC
30
30
30
30
30
30
30
30
30
30
ENDCHAR
STARTCHAR 2021
ENCODING 8225
SWIDTH 411 0
DWIDTH 8 0
BBX 6 15 1 0
BITMAP
30
30
30
30
FC
FC
30
30
30
FC
FC
30
30
30
30
ENDCHAR
STARTCHAR 2022
ENCODING 8226
SWIDTH 411 0
DWIDTH 8 0
BBX 6 6 1 4
BITMAP
78
78
FC
FC
78
78
ENDCHAR
STARTCHAR 2026
ENCODING 8230
SWIDTH 565 0
DWIDTH 11 0
BBX 10 3 1 0
BITMAP
DDC0
DDC0
DDC0
ENDCHAR
STARTCHAR 2030
ENCODING 8240
SWIDTH 1337 0
DWIDTH 26 0
BBX 24 15 1 0
BITMAP
786000
FC6000
CC6000
CCC000
CCC000
CCC000
CC8000
FD9E1E
79BF3F
01B3B3
0333B3
0333B3
0333B3
023F3F
061E1E
ENDCHAR
STARTCHAR 2039
ENCODING 8249
SWIDTH 257 0
DWIDTH 5 0
BBX 4 10 1 1
BITMAP
10
20
60
C0
80
C0
60
20
10
10
ENDCHAR
STARTCHAR 203A
ENCODING 8250
SWIDTH 257 0
DWIDTH 5 0
BBX 4 10 1 2
BITMAP
80
80
C0
60
30
70
E0
C0
80
80
ENDCHAR
STARTCHAR 2044
ENCODING 8260
SWIDTH 257 0
DWIDTH 5 0
BBX 5 15 0 0
BITMAP
18
18
18
30
30
30
30
30
60
60
60
60
60
C0
C0
ENDCHAR
STARTCHAR 2074
ENCODING 8308
SWIDTH 360 0
DWIDTH 7 0
BBX 6 10 1 5
BITMAP
18
38
78
58
D8
98
FC
FC
18
18
ENDCHAR
STARTCHAR 20AC
ENCODING 8364
SWIDTH 514 0
DWIDTH 10 0
BBX 10 15 0 0
BITMAP
1F00
3F80
7180
71C0
7000
FC00
7000
7000
FC00
7000
71C0
7180
7180
3F80
1F00
ENDCHAR
STARTCHAR 2113
ENCODING 8467
SWIDTH 514 0
DWIDTH 10 0
BBX 9 18 1 -1
BITMAP
0100
0780
0F80
0D80
0D80
0D00
0B00
0A00
1E00
1C00
1800
1800
3000
7000
D000
3000
3200
1C00
ENDCHAR
STARTCHAR 2116
ENCODING 8470
SWIDTH 977 0
DWIDTH 19 0
BBX 17 15 1 0
BITMAP
C30000
E30000
E30000
F30000
F31E00
FB3F00
FB3380
FB3380
EF3380
EF3380
EF3380
E73380
E73380
E33F00
E31E00
ENDCHAR
STARTCHAR 2122
ENCODING 8482
SWIDTH 771 0
DWIDTH 15 0
BBX 13 8 1 7
BITMAP
FB18
3318
33B8
33B8
32B8
32F8
32F8
3258
ENDCHAR
STARTCHAR 212E
ENCODING 8494
SWIDTH 411 0
DWIDTH 8 0
BBX 7 11 1 0
BITMAP
7C
CC
C6
C6
C6
FE
C0
C6
C6
C6
7C
ENDCHAR
STARTCHAR 2202
ENCODING 8706
SWIDTH 514 0
DWIDTH 10 0
BBX 8 15 1 0
BITMAP
3C
1E
06
03
03
7B
FF
E7
C7
C7
C7
C6
C6
FE
7C
ENDCHAR
STARTCHAR 220F
ENCODING 8719
SWIDTH 565 0
DWIDTH 11 0
BBX 9 19 1 -3
BITMAP
FF80
FF80
E380
E380
E380
E380
E380
E380
E380
E380
E380
E380
E380
E380
E380
E380
E380
E380
E380
ENDCHAR
STARTCHAR 2211
ENCODING 8721
SWIDTH 411 0
DWIDTH 8 0
BBX 7 20 0 -4
BITMAP
80
7E
7E
70
30
30
38
38
18
1C
1C
18
18
38
30
30
70
70
7E
FE
ENDCHAR
STARTCHAR 2212
ENCODING 8722
SWIDTH 411 0
DWIDTH 8 0
BBX 6 1 1 7
BITMAP
FC
ENDCHAR
STARTCHAR 2215
ENCODING 8725
SWIDTH 411 0
DWIDTH 8 0
BBX 6 15 1 1
BITMAP
0C
08
18
18
18
30
30
30
20
60
60
40
C0
C0
C0
ENDCHAR
STARTCHAR 2219
ENCODING 8729
SWIDTH 205 0
DWIDTH 4 0
BBX 2 2 1 6
BITMAP
C0
C0
ENDCHAR
STARTCHAR 221A
ENCODING 8730
SWIDTH 514 0
DWIDTH 10 0
BBX 10 15 0 1
BITMAP
01C0
01C0
01C0
0180
F980
F980
1B80
1B80
1B00
1B00
1F00
0F00
0F00
0E00
0E00
ENDCHAR
STARTCHAR 221E
ENCODING 8734
SWIDTH 617 0
DWIDTH 12 0
BBX 12 6 0 2
BITMAP
7DE0
7FF0
C730
CF30
7FE0
79E0
ENDCHAR
STARTCHAR 222B
ENCODING 8747
SWIDTH 308 0
DWIDTH 6 0
BBX 6 19 0 -3
BITMAP
3C
3C
30
30
30
30
30
30
30
30
30
30
30
30
30
30
70
F0
60
ENDCHAR
STARTCHAR 2248
ENCODING 8776
SWIDTH 462 0
DWIDTH 9 0
BBX 7 7 1 5
BITMAP
72
FE
9C
00
F2
FE
0C
ENDCHAR
STARTCHAR 2260
ENCODING 8800
SWIDTH 411 0
DWIDTH 8 0
BBX 6 15 1 1
BITMAP
0C
0C
08
18
18
FC
FC
30
FC
FC
60
60
60
40
C0
ENDCHAR
STARTCHAR 2264
ENCODING 8804
SWIDTH 411 0
DWIDTH 8 0
BBX 6 13 1 0
BITMAP
04
08
18
78
E0
C0
E0
70
38
08
04
FC
FC
ENDCHAR
STARTCHAR 2265
ENCODING 8805
SWIDTH 411 0
DWIDTH 8 0
BBX 6 13 1 0
BITMAP
80
C0
E0
78
3C
0C
3C
70
E0
C0
80
FC
FC
ENDCHAR
STARTCHAR 25CA
ENCODING 9674
SWIDTH 462 0
DWIDTH 9 0
BBX 7 11 1 0
BITMAP
10
38
2C
6C
C6
82
C6
64
2C
38
10
ENDCHAR
STARTCHAR FB00
ENCODING 64256
SWIDTH 514 0
DWIDTH 10 0
BBX 11 15 0 0
BITMAP
3DE0
3DE0
3180
3180
FFE0
FFE0
3180
3180
3180
3180
3180
3180
3180
3180
3180
ENDCHAR
STARTCHAR FB01
ENCODING 64257
SWIDTH 514 0
DWIDTH 10 0
BBX 9 15 0 0
BITMAP
3D80
3D80
3000
3000
FF80
FF80
3380
3380
3380
3380
3380
3380
3380
3380
3380
ENDCHAR
STARTCHAR FB02
ENCODING 64258
SWIDTH 514 0
DWIDTH 10 0
BBX 9 15 0 0
BITMAP
1F80
3F80
3180
7180
FD80
FD80
7180
7180
7180
7180
7180
7180
7180
7180
7180
ENDCHAR
STARTCHAR FB03
ENCODING 64259
SWIDTH 771 0
DWIDTH 15 0
BBX 14 15 0 0
BITMAP
3DDC
3FDC
3380
7380
FFFC
FFFC
739C
739C
739C
739C
739C
739C
739C
739C
739C
ENDCHAR
STARTCHAR FB04
ENCODING 64260
SWIDTH 771 0
DWIDTH 15 0
BBX 14 15 0 0
BITMAP
3DFC
3DFC
3180
3180
FFFC
FFFC
319C
319C
319C
319C
319C
319C
319C
319C
319C
ENDCHAR
ENDFONT
